<svg width="499" height="386" viewBox="0 0 499 386" fill="none" xmlns="http://www.w3.org/2000/svg">
<path opacity="0.69" d="M489.774 96.128C489.166 93.6985 488.444 91.2448 487.588 88.8601C474.881 53.3143 439.686 25.0785 398.399 12.5103C365.361 2.49307 349.407 -4.83228 318.122 3.86927C286.903 12.5362 250.806 53.651 217.304 57.7196C170.085 63.3968 98.104 42.2338 56.755 66.8277C9.75727 94.7598 -6.32916 153.253 2.17345 203.697C10.4053 252.909 66.88 298.149 108.91 328.045C184.447 381.854 264.985 398.839 360.694 375.186C475.347 346.887 510.703 241.93 494.875 155.235C491.264 135.481 494.545 115.738 489.774 96.128Z" fill="#8BD1E9"/>
</svg>
