<svg width="418" height="418" viewBox="0 0 418 418" fill="none" xmlns="http://www.w3.org/2000/svg">
<path d="M317.672 238.349C315.861 238.349 314.038 238.245 312.246 238.036C311.475 237.946 310.767 237.565 310.268 236.971C309.769 236.376 309.515 235.614 309.56 234.839C309.796 230.655 307.369 226.761 303.522 225.151C299.857 223.615 295.077 224.691 292.395 227.655C291.311 228.851 289.48 228.994 288.23 227.984C285.467 225.759 282.959 223.224 280.776 220.445C279.797 219.202 279.944 217.391 281.109 216.323C284.163 213.525 285.165 209.089 283.605 205.285C282.061 201.526 278.365 199.069 274.429 199.169C272.9 199.169 271.088 198.062 270.91 196.476C270.512 192.899 270.516 189.292 270.93 185.762C271.127 184.125 272.428 183.022 274.084 183.076C278.446 183.076 282.27 180.708 283.81 177.042C285.424 173.195 284.422 168.721 281.314 165.907C280.126 164.824 279.983 162.997 280.989 161.747C283.214 158.968 285.78 156.433 288.61 154.211C289.86 153.236 291.671 153.391 292.739 154.559C295.398 157.482 300.147 158.565 303.789 157.075C307.59 155.519 310.044 151.692 309.901 147.55C309.846 145.967 311.038 144.593 312.61 144.419C316.132 144.03 319.687 144.039 323.207 144.446C324.809 144.632 325.99 146.037 325.893 147.643C325.657 151.823 328.08 155.717 331.923 157.335C335.596 158.867 340.384 157.791 343.054 154.834C344.134 153.638 345.961 153.491 347.215 154.498C349.963 156.696 352.471 159.235 354.681 162.037C355.664 163.283 355.517 165.095 354.348 166.163C351.298 168.961 350.296 173.397 351.852 177.201C353.373 180.917 357.003 183.316 361.098 183.316C362.584 183.316 364.364 184.423 364.542 186.014C364.941 189.59 364.937 193.197 364.523 196.727C364.333 198.333 362.894 199.541 361.311 199.409L360.757 199.394C356.825 199.394 353.152 201.824 351.639 205.443C350.025 209.287 351.031 213.761 354.139 216.578C355.331 217.658 355.474 219.485 354.468 220.739C352.223 223.533 349.666 226.061 346.847 228.275C345.574 229.258 343.801 229.111 342.717 227.93C340.055 225.008 335.302 223.924 331.66 225.414C327.859 226.97 325.405 230.798 325.552 234.935C325.607 236.518 324.414 237.896 322.843 238.07C321.132 238.252 319.395 238.349 317.672 238.349ZM299.938 223.56C301.297 223.56 302.64 223.808 303.867 224.323C308.066 226.08 310.713 230.326 310.454 234.889C310.423 235.435 310.601 235.973 310.953 236.393C311.305 236.812 311.803 237.081 312.347 237.145C315.8 237.545 319.287 237.554 322.742 237.173C323.853 237.049 324.693 236.077 324.654 234.963C324.492 230.454 327.17 226.281 331.315 224.582C335.29 222.961 340.473 224.137 343.372 227.326C344.134 228.158 345.388 228.263 346.286 227.566C349.045 225.403 351.561 222.914 353.76 220.178C354.103 219.752 354.27 219.21 354.227 218.665C354.184 218.119 353.933 217.611 353.527 217.244C350.137 214.171 349.042 209.29 350.799 205.099C352.455 201.151 356.457 198.5 360.757 198.5L361.346 198.515C362.48 198.604 363.486 197.757 363.621 196.623C364.028 193.159 364.035 189.621 363.641 186.115C363.521 185.046 362.17 184.214 361.086 184.214C356.628 184.214 352.672 181.594 351.008 177.542C349.313 173.389 350.404 168.551 353.729 165.501C354.553 164.746 354.658 163.469 353.965 162.591C351.801 159.843 349.336 157.354 346.646 155.198C346.219 154.856 345.677 154.69 345.132 154.734C344.587 154.778 344.079 155.029 343.712 155.434C340.798 158.662 335.577 159.835 331.571 158.163C327.375 156.398 324.736 152.152 324.991 147.593C325.023 147.046 324.844 146.509 324.492 146.089C324.141 145.67 323.642 145.401 323.099 145.336C319.642 144.938 316.143 144.926 312.703 145.309C311.592 145.433 310.752 146.401 310.791 147.519C310.949 152.032 308.271 156.204 304.122 157.903C300.147 159.525 294.969 158.349 292.07 155.159C291.319 154.335 290.038 154.227 289.155 154.916C286.39 157.084 283.882 159.563 281.682 162.304C281.34 162.731 281.174 163.272 281.217 163.817C281.26 164.362 281.51 164.87 281.914 165.238C285.3 168.307 286.396 173.188 284.635 177.387C282.955 181.385 278.81 183.97 274.069 183.97C272.857 183.936 271.959 184.694 271.82 185.867C271.414 189.331 271.41 192.865 271.801 196.375C271.921 197.443 273.302 198.271 274.417 198.271C278.725 198.159 282.746 200.841 284.434 204.944C286.136 209.093 285.041 213.931 281.713 216.985C280.892 217.739 280.788 219.017 281.477 219.891C283.626 222.625 286.079 225.106 288.788 227.288C289.67 228 290.963 227.895 291.725 227.055C293.753 224.811 296.877 223.56 299.938 223.56ZM317.8 207.351C308.972 207.351 301.788 200.168 301.788 191.34C301.788 182.511 308.972 175.328 317.8 175.328C326.628 175.328 333.812 182.511 333.812 191.34C333.812 200.168 326.628 207.351 317.8 207.351ZM317.8 176.222C309.463 176.222 302.682 183.003 302.682 191.34C302.682 199.676 309.463 206.457 317.8 206.457C326.133 206.457 332.914 199.676 332.914 191.34C332.914 183.003 326.137 176.222 317.8 176.222Z" fill="#1A7FC1"/>
<path d="M119.235 298.723C117.206 299.625 115.105 300.418 112.992 301.076C111.107 301.668 109.083 300.681 108.386 298.831C106.563 294.02 101.899 290.866 96.7825 290.978C91.9058 291.083 87.0795 294.675 85.5507 299.338C84.9314 301.219 82.9498 302.291 81.0417 301.784C76.8346 300.67 72.7552 299.075 68.9236 297.043C67.2051 296.141 66.4659 294.036 67.2399 292.252C69.268 287.588 68.1805 282.111 64.5346 278.624C60.9274 275.179 55.5553 274.266 51.1934 276.341C49.4788 277.103 46.8973 276.766 45.9065 275.075C43.6733 271.263 41.8813 267.214 40.5847 263.05C39.9887 261.118 40.8982 259.226 42.7831 258.463C47.6752 256.288 50.7831 251.725 50.6825 246.845C50.5741 241.724 47.2147 237.203 42.3264 235.601C40.4531 234.982 39.381 233.004 39.8842 231.1C40.995 226.873 42.605 222.751 44.6718 218.846C45.5891 217.132 47.6985 216.396 49.475 217.174C53.9143 219.125 59.7817 217.972 63.1219 214.484C66.6091 210.842 67.4528 205.323 65.2235 200.752C64.3759 199.003 65.0222 196.866 66.702 195.887C70.4407 193.7 74.4466 191.936 78.6034 190.631C80.4921 190.043 82.5163 191.03 83.2091 192.876C85.0282 197.683 89.6881 200.841 94.8047 200.737C99.6891 200.625 104.519 197.029 106.04 192.381C106.656 190.504 108.63 189.428 110.538 189.931C114.714 191.026 118.797 192.621 122.668 194.66C124.39 195.566 125.129 197.671 124.351 199.456C122.327 204.112 123.415 209.588 127.057 213.079C130.617 216.485 135.885 217.368 140.479 215.324C142.147 214.581 144.694 214.937 145.688 216.629C147.922 220.441 149.714 224.485 151.01 228.654C151.599 230.55 150.585 232.621 148.746 233.263L148.119 233.523C143.707 235.485 140.804 240.044 140.909 244.859C141.017 249.976 144.376 254.492 149.269 256.099C151.146 256.714 152.218 258.692 151.711 260.6C150.588 264.849 148.978 268.971 146.923 272.853C145.987 274.591 143.924 275.307 142.12 274.525C137.677 272.575 131.805 273.732 128.465 277.215C124.978 280.857 124.134 286.373 126.368 290.936C127.219 292.685 126.569 294.822 124.893 295.801C123.07 296.888 121.166 297.864 119.235 298.723ZM91.9678 290.982C93.4888 290.305 95.1182 289.91 96.7554 289.875C102.34 289.751 107.426 293.192 109.415 298.44C109.652 299.069 110.12 299.584 110.724 299.878C111.328 300.173 112.022 300.225 112.663 300.023C116.711 298.762 120.67 297.012 124.336 294.868C125.52 294.179 125.977 292.67 125.377 291.435C122.942 286.458 123.867 280.443 127.672 276.468C131.318 272.668 137.719 271.402 142.561 273.531C143.831 274.08 145.29 273.573 145.952 272.346C147.968 268.542 149.547 264.497 150.646 260.333C150.818 259.684 150.736 258.994 150.415 258.404C150.095 257.814 149.562 257.369 148.924 257.159C143.591 255.406 139.926 250.479 139.806 244.898C139.693 239.646 142.859 234.672 147.682 232.528L148.351 232.249C149.667 231.785 150.372 230.33 149.958 228.994C148.671 224.877 146.919 220.919 144.736 217.197C144.067 216.06 142.139 215.8 140.924 216.342C135.92 218.568 130.18 217.604 126.294 213.884C122.319 210.076 121.131 204.104 123.341 199.026C123.891 197.768 123.368 196.286 122.153 195.643C118.356 193.639 114.35 192.079 110.255 191.003C109.606 190.831 108.915 190.915 108.326 191.237C107.736 191.559 107.292 192.094 107.085 192.733C105.425 197.807 100.157 201.724 94.828 201.848C89.243 201.96 84.1612 198.515 82.1796 193.275C81.6919 191.97 80.2637 191.274 78.9323 191.692C74.853 192.969 70.9284 194.703 67.2593 196.847C66.075 197.54 65.6183 199.045 66.2182 200.28C68.6488 205.261 67.7237 211.28 63.9192 215.255C60.2733 219.055 53.8717 220.317 49.0337 218.188C47.7797 217.639 46.2896 218.157 45.6433 219.369C43.6152 223.197 42.0361 227.237 40.9485 231.386C40.5925 232.729 41.351 234.126 42.6708 234.564C48.0003 236.313 51.6617 241.244 51.7817 246.833C51.8939 252.155 48.5306 257.12 43.2166 259.485C41.8426 260.046 41.2117 261.347 41.6374 262.732C42.9108 266.816 44.6679 270.787 46.8586 274.529C47.5243 275.667 49.4904 275.907 50.7367 275.35C55.5127 273.074 61.3609 274.076 65.297 277.838C69.2758 281.643 70.464 287.615 68.2501 292.697C67.7044 293.955 68.2269 295.437 69.4383 296.076C73.2003 298.065 77.1984 299.629 81.3281 300.724C82.675 301.08 84.0683 300.321 84.5057 298.998C85.6552 295.472 88.5386 292.507 91.9678 290.982ZM103.916 263.894C94.0113 268.298 82.3731 263.824 77.9686 253.923C73.5641 244.019 78.0383 232.381 87.9387 227.976C97.843 223.572 109.481 228.046 113.886 237.947C118.29 247.847 113.82 259.489 103.916 263.894ZM88.3877 228.979C79.0407 233.136 74.8181 244.124 78.9749 253.471C83.1317 262.818 94.1197 267.04 103.467 262.883C112.814 258.727 117.036 247.739 112.879 238.392C108.723 229.045 97.7385 224.822 88.3877 228.979Z" fill="#1A7FC1"/>
<path d="M104.415 55.3347H313.581V362.669H104.415V55.3347Z" fill="#F7F7F7"/>
<path d="M116.092 68.2307H301.908V349.773H116.092V68.2307Z" fill="white"/>
<path opacity="0.1" d="M286.427 133.381H131.573C129.019 133.381 126.929 131.291 126.929 128.736V97.1076C126.929 94.5531 129.019 92.4631 131.573 92.4631H286.431C288.985 92.4631 291.075 94.5531 291.075 97.1076V128.736C291.071 131.291 288.981 133.381 286.427 133.381ZM179.009 149.156H129.94C128.283 149.156 126.929 147.802 126.929 146.145C126.929 144.489 128.283 143.134 129.94 143.134H179.009C180.665 143.134 182.02 144.489 182.02 146.145C182.02 147.802 180.665 149.156 179.009 149.156ZM288.06 166.546H129.94C128.283 166.546 126.929 165.191 126.929 163.535C126.929 161.878 128.283 160.524 129.94 160.524H288.06C289.717 160.524 291.071 161.878 291.071 163.535C291.071 165.187 289.717 166.546 288.06 166.546ZM288.06 180.398H129.94C128.283 180.398 126.929 179.043 126.929 177.387C126.929 175.73 128.283 174.376 129.94 174.376H288.06C289.717 174.376 291.071 175.73 291.071 177.387C291.071 179.043 289.717 180.398 288.06 180.398ZM288.06 194.25H129.94C128.283 194.25 126.929 192.895 126.929 191.239C126.929 189.582 128.283 188.228 129.94 188.228H288.06C289.717 188.228 291.071 189.582 291.071 191.239C291.071 192.895 289.717 194.25 288.06 194.25ZM288.06 208.106H129.94C128.283 208.106 126.929 206.751 126.929 205.095C126.929 203.438 128.283 202.084 129.94 202.084H288.06C289.717 202.084 291.071 203.438 291.071 205.095C291.071 206.751 289.717 208.106 288.06 208.106ZM288.06 221.958H129.94C128.283 221.958 126.929 220.603 126.929 218.947C126.929 217.29 128.283 215.936 129.94 215.936H288.06C289.717 215.936 291.071 217.29 291.071 218.947C291.071 220.603 289.717 221.958 288.06 221.958ZM288.06 235.814H129.94C128.283 235.814 126.929 234.459 126.929 232.803C126.929 231.146 128.283 229.792 129.94 229.792H288.06C289.717 229.792 291.071 231.146 291.071 232.803C291.071 234.459 289.717 235.814 288.06 235.814ZM288.06 249.666H129.94C128.283 249.666 126.929 248.311 126.929 246.655C126.929 244.998 128.283 243.644 129.94 243.644H288.06C289.717 243.644 291.071 244.998 291.071 246.655C291.071 248.311 289.717 249.666 288.06 249.666ZM288.06 263.522H129.94C128.283 263.522 126.929 262.167 126.929 260.511C126.929 258.854 128.283 257.5 129.94 257.5H288.06C289.717 257.5 291.071 258.854 291.071 260.511C291.071 262.163 289.717 263.522 288.06 263.522ZM288.06 277.374H129.94C128.283 277.374 126.929 276.019 126.929 274.363C126.929 272.706 128.283 271.352 129.94 271.352H288.06C289.717 271.352 291.071 272.706 291.071 274.363C291.071 276.019 289.717 277.374 288.06 277.374ZM219.4 291.23H129.94C128.283 291.23 126.929 289.875 126.929 288.219C126.929 286.562 128.283 285.208 129.94 285.208H219.4C221.056 285.208 222.411 286.562 222.411 288.219C222.411 289.871 221.056 291.23 219.4 291.23Z" fill="#1A7FC1"/>
<path d="M268.584 341.367C282.002 341.367 292.879 330.49 292.879 317.072C292.879 303.655 282.002 292.778 268.584 292.778C255.167 292.778 244.29 303.655 244.29 317.072C244.29 330.49 255.167 341.367 268.584 341.367Z" fill="#1A7FC1"/>
<path d="M270.616 339.087C284.034 339.087 294.911 328.21 294.911 314.793C294.911 301.375 284.034 290.499 270.616 290.499C257.199 290.499 246.322 301.375 246.322 314.793C246.322 328.21 257.199 339.087 270.616 339.087Z" stroke="#1A7FC1" stroke-miterlimit="10"/>
<path d="M398.292 378.131H24.3524C22.3359 378.131 20.6871 376.483 20.6871 374.466V360.44C20.6871 358.423 22.3359 356.775 24.3524 356.775H398.288C400.305 356.775 401.953 358.423 401.953 360.44V374.466C401.957 376.479 400.309 378.131 398.292 378.131Z" fill="#CDF0EF"/>
<path d="M178.714 234.649L179.67 243.001C179.67 243.001 185.468 243.079 187.697 240.52C187.291 238.98 186.254 237.811 186.254 237.811C186.254 237.811 186.803 237.919 188.766 237.405C187.496 236.441 181.501 233.047 181.501 233.047L178.714 234.649Z" fill="#FCD2B1"/>
<path d="M189.064 239.39C189.064 239.39 187.879 236.267 186.652 236.584C185.426 236.902 180.715 240.934 182.368 242.548C184.203 244.34 183.897 246.016 183.897 246.016C183.897 246.016 189.667 243.655 189.064 239.39Z" fill="#FCD2B1"/>
<path d="M282.274 262.245H264.164C263.228 262.245 262.469 261.486 262.469 260.549V249.975C262.469 249.039 263.232 248.28 264.164 248.28H282.274C283.211 248.28 283.969 249.043 283.969 249.975V260.549C283.969 261.486 283.207 262.245 282.274 262.245ZM264.791 259.922H281.647V250.602H264.791V259.922Z" fill="#9ACFF7"/>
<path d="M291.803 256.989V277.807C291.803 278.756 291.029 279.53 290.08 279.53H256.354C255.406 279.53 254.632 278.756 254.632 277.807V256.989C254.632 256.04 255.406 255.266 256.354 255.266H290.08C291.029 255.266 291.803 256.04 291.803 256.989Z" fill="#CCE9FF"/>
<path d="M291.803 256.989V267.4H254.632V256.989C254.632 256.04 255.406 255.266 256.354 255.266H290.08C291.029 255.266 291.803 256.04 291.803 256.989Z" fill="#9ACFF7"/>
<path d="M268.584 265.836H277.85V270.62H268.584V265.836Z" fill="#2A94F4"/>
<path d="M230.403 237.59L226.161 360.951H234.993C234.993 360.951 248.153 303.321 241.925 293.653C247.711 275.861 256.861 238.233 256.861 238.233L230.403 237.59Z" fill="#0D517F"/>
<path d="M232.938 238.233L239.177 251.148L264.401 363.435H273.217C273.217 363.435 273.148 306.622 263.626 296.915C262.504 275.973 264.091 248.342 259.566 234.061C241.511 230.001 232.938 238.233 232.938 238.233Z" fill="#0E538C"/>
<path d="M239.851 180.011C232.536 192.733 220.828 213.776 207.626 220.476C208.419 223.359 210.111 225.945 210.111 225.945C210.111 225.945 230.945 218.498 237.625 208.001C244.306 197.505 239.851 180.011 239.851 180.011Z" fill="#0B3A54"/>
<path d="M272.993 242.196C271.615 243.001 268.588 253.676 268.588 253.676C268.588 253.676 274.069 254.875 277.293 252.189C279.332 245.85 275.145 239.402 275.145 239.402L272.993 242.196ZM243.512 155.964C243.319 158.116 241.929 165.586 241.929 165.586L256.865 157.992L256.153 156.076L252.275 147.991C252.275 147.991 248.513 148.119 248.133 147.991C247.75 147.864 243.512 155.964 243.512 155.964Z" fill="#FCD2B1"/>
<path d="M259.473 124.552C263.235 131.376 267.942 126.906 265 135.254C265.922 136.667 270.999 139.724 260.65 150.19C257.356 155.484 256.149 156.069 256.149 156.069C256.149 156.069 253.769 152.628 252.271 149.818L245.242 128.547L259.473 124.552Z" fill="#0E538C"/>
<path d="M237.587 132.247C237.587 132.247 229.915 138.714 234.277 156.618C240.447 157.52 246.163 155.113 246.163 155.113L252.271 149.826C252.271 149.826 250.978 130.741 244.507 129.99C238.039 129.236 237.587 132.247 237.587 132.247Z" fill="#FFE3CA"/>
<path d="M245.478 133.373C240.772 133.609 228.631 128.667 232.938 123.26C237.246 117.853 241.6 124.905 244.538 123.848C247.479 122.787 255.711 117.733 259.473 124.552C259.473 124.552 261.591 132.785 245.478 133.373Z" fill="#0E538C"/>
<path d="M254.152 143.194C255.418 141.429 255.51 139.328 254.356 138.501C253.203 137.673 251.242 138.433 249.976 140.198C248.71 141.962 248.619 144.064 249.772 144.891C250.925 145.718 252.886 144.958 254.152 143.194Z" fill="#FFE3CA"/>
<path d="M245.242 131.465C244.573 136.988 244.902 140.088 245.796 140.998C246.388 142.36 246.775 144.856 246.775 144.856H249.039C249.039 144.856 252.224 138.47 252.271 136.427C252.313 134.383 251.307 129.866 251.307 129.866L245.242 131.465Z" fill="#0E538C"/>
<path d="M259.566 165.586V156.077C259.566 156.077 239.893 163.105 238.782 165.586C237.672 168.067 228.565 193.882 228.565 193.882C228.565 193.882 228.53 251.686 228.596 253.676C232.199 249.035 242.603 239.642 242.603 239.642L267.056 253.676C267.056 253.676 259.114 223.529 258.757 221.474C258.401 219.419 263.623 198.666 263.623 198.666L259.566 165.586Z" fill="#0B4870"/>
<path d="M258.521 166.658C249.732 167.552 246.326 170.78 246.326 174.368C252.066 187.101 274.661 208.512 271.615 243.001C274.483 243.233 278.431 243.001 278.431 243.001C278.431 243.001 291.338 199.479 258.521 166.658Z" fill="#125D87"/>
<path d="M210.355 222.918C210.273 222.864 210.196 222.813 210.122 222.759C208.714 221.799 208.172 221.246 207.626 220.472C207.053 219.659 204.677 218.161 203.531 219.264C202.386 220.363 202.281 222.523 202.552 223.336C202.827 224.149 202.475 227.624 203.047 228.286C203.62 228.948 205.733 230.179 207.494 230.001C209.255 229.827 210.355 227.934 210.749 226.304C211.148 224.679 210.355 222.918 210.355 222.918Z" fill="#EDBC9A"/>
<path d="M226.161 361.167L206.175 369.887H235.64L234.997 361.167H226.161ZM264.13 361.167L244.139 369.887H273.604L272.962 361.167H264.13Z" fill="#0B4870"/>
<path d="M311.627 81.9976H262.949C257.519 81.9976 253.08 86.4408 253.08 91.867V103.954C253.08 109.384 257.523 113.824 262.949 113.824H265.631L260.623 122.397L272.668 113.824H311.627C317.057 113.824 321.496 109.38 321.496 103.954V91.867C321.496 86.4369 317.057 81.9976 311.627 81.9976ZM253.699 38.6533H230.155C218.742 38.6533 209.406 47.9925 209.406 59.4024C209.406 70.7464 218.629 80.0315 229.946 80.1476C235.241 83.5496 241.929 87.7722 241.929 87.7722L237.896 80.1514H253.703C265.116 80.1514 274.452 70.8122 274.452 59.4024C274.452 47.9925 265.113 38.6533 253.699 38.6533Z" fill="#1A7FC1"/>
<path d="M168.199 135.49C165.42 131.213 162.087 126.549 157.063 125.675C153.987 125.137 150.855 126.17 148.007 127.451C143.018 129.692 138.134 133.052 136.094 138.126C134.104 143.08 135.188 148.649 135.893 153.94C136.597 159.231 136.717 165.156 133.319 169.271C129.665 173.687 123.306 174.465 118.224 177.116C113.321 179.678 109.481 184.214 107.778 189.482C106.923 192.121 106.609 195.078 107.709 197.625C108.908 200.396 111.579 202.246 114.323 203.508C126.004 208.876 140.611 205.482 150.093 196.8C159.575 188.119 164.22 174.979 164.351 162.126C164.398 157.551 163.926 152.899 165.013 148.456C165.621 145.971 166.701 143.622 167.258 141.125L168.199 135.49Z" fill="#0E538C"/>
<path d="M151.428 185.936C159.614 205.602 169.294 224.094 178.827 236.333C182.538 236.538 184.694 234.44 184.694 234.44C184.694 234.44 164.344 198.689 165.88 187.697C167.421 176.702 151.428 185.936 151.428 185.936Z" fill="#1989DD"/>
<path d="M176.454 215.719L195.085 226.72L179.893 252.449L161.263 241.448L176.454 215.719Z" fill="#CCE9FF"/>
<path d="M176.921 217.35L193.435 227.101L179.7 250.364L163.186 240.613L176.921 217.35Z" fill="white"/>
<path d="M182.24 217.925L190.349 222.713C190.455 222.775 190.548 222.859 190.623 222.957C190.697 223.056 190.751 223.168 190.782 223.288C190.813 223.408 190.82 223.533 190.803 223.655C190.786 223.777 190.744 223.895 190.682 224.002L189.377 226.212C189.315 226.318 189.231 226.411 189.133 226.486C189.034 226.56 188.922 226.614 188.802 226.645C188.682 226.676 188.557 226.683 188.435 226.666C188.313 226.649 188.195 226.607 188.088 226.544L179.98 221.757C179.873 221.694 179.78 221.611 179.706 221.512C179.631 221.414 179.577 221.301 179.546 221.181C179.515 221.062 179.508 220.937 179.526 220.815C179.543 220.692 179.584 220.574 179.647 220.468L180.951 218.258C181.218 217.809 181.795 217.658 182.24 217.925Z" fill="#0E538C"/>
<path d="M175.955 221.528L190.233 229.958C190.422 230.07 190.484 230.314 190.372 230.504C190.26 230.693 190.016 230.755 189.826 230.643L175.548 222.213C175.359 222.101 175.297 221.857 175.409 221.668C175.517 221.478 175.765 221.416 175.955 221.528ZM174.635 223.765L188.913 232.195C189.102 232.307 189.164 232.551 189.052 232.741C188.94 232.93 188.696 232.992 188.506 232.88L174.229 224.45C174.039 224.338 173.977 224.094 174.089 223.905C174.198 223.715 174.445 223.653 174.635 223.765ZM173.315 225.999L187.593 234.428C187.783 234.541 187.845 234.784 187.732 234.974C187.62 235.164 187.376 235.226 187.187 235.113L172.909 226.684C172.719 226.571 172.657 226.328 172.769 226.138C172.878 225.948 173.126 225.886 173.315 225.999ZM171.995 228.236L186.273 236.665C186.463 236.778 186.525 237.021 186.413 237.211C186.3 237.401 186.056 237.463 185.867 237.35L171.589 228.921C171.399 228.808 171.337 228.565 171.45 228.375C171.558 228.185 171.806 228.123 171.995 228.236ZM170.676 230.469L184.953 238.899C185.143 239.011 185.205 239.255 185.093 239.444C184.98 239.634 184.737 239.696 184.547 239.584L170.269 231.154C170.08 231.042 170.018 230.798 170.13 230.608C170.238 230.422 170.486 230.357 170.676 230.469ZM169.356 232.706L183.634 241.136C183.823 241.248 183.885 241.492 183.773 241.681C183.661 241.871 183.417 241.933 183.227 241.821L168.949 233.391C168.76 233.279 168.698 233.035 168.81 232.845C168.918 232.656 169.166 232.594 169.356 232.706ZM167.924 234.873L177.584 240.578C177.712 240.656 177.727 240.869 177.615 241.058C177.503 241.248 177.309 241.341 177.178 241.263L167.517 235.558C167.39 235.481 167.374 235.268 167.486 235.078C167.599 234.893 167.796 234.8 167.924 234.873Z" fill="#CCE9FF"/>
<path d="M178.591 248.199C179.882 248.199 180.928 247.152 180.928 245.861C180.928 244.57 179.882 243.524 178.591 243.524C177.299 243.524 176.253 244.57 176.253 245.861C176.253 247.152 177.299 248.199 178.591 248.199Z" fill="#1A7FC1"/>
<path d="M157.656 355.505L162.389 362.325C163.438 363.834 164.781 365.115 166.337 366.087L172.429 369.887H157.195L152.245 364.074V369.887H149.985V355.505H157.656Z" fill="#1A7FC1"/>
<path d="M164.8 283.559C164.084 286.129 157.656 355.246 157.656 355.246C157.656 355.246 149.795 357.494 150.035 355.246C150.275 352.997 141.938 297.705 152.655 283.559C160.036 277.773 164.8 283.559 164.8 283.559Z" fill="#F7C39F"/>
<path d="M153.723 355.505L158.457 362.325C159.506 363.834 160.849 365.115 162.405 366.087L168.497 369.887H153.263L148.313 364.074V369.887H146.052V355.505H153.723Z" fill="#1A7FC1"/>
<path d="M160.868 283.559C160.152 286.129 153.723 355.246 153.723 355.246C153.723 355.246 145.863 357.494 146.103 355.246C146.343 352.997 138.006 297.705 148.723 283.559C156.104 277.773 160.868 283.559 160.868 283.559Z" fill="#FCD2B1"/>
<path d="M149.245 220.925C143.726 227.017 135.749 233.19 141.853 251.783C144.558 260.031 144.88 268.871 142.948 277.331C140.483 288.141 138.292 301.409 138.292 301.409L166.008 302.187C166.008 302.187 174.716 237.889 168.202 220.925C160.117 217.917 149.245 220.925 149.245 220.925Z" fill="#0E538C"/>
<path d="M160.024 167.626C163.275 172.352 174.31 189.153 173.679 191.494C172.928 194.289 168.195 220.925 168.195 220.925H149.241C149.241 220.925 151.633 214.821 149.636 210.753C147.639 206.686 131.74 177.998 151.897 163.183C155.372 164.506 160.024 167.626 160.024 167.626Z" fill="#2A94F4"/>
<path d="M161.019 160.45C160.586 163.817 160.044 166.422 161.561 171.31C157.11 169.356 152.222 165.338 151.897 163.817C153.418 160.233 155.047 157.911 153.743 154.838C155.914 155.128 161.019 160.45 161.019 160.45Z" fill="#FCD2B1"/>
<path d="M168.361 138.559C170.296 145.139 169.816 163.945 164.727 163.159C159.637 162.378 153.572 159.831 151.223 153.375C148.878 146.919 153.402 127.266 168.361 138.559Z" fill="#FFE3CA"/>
<path d="M151.14 154.763C152.04 154.244 152.096 152.657 151.266 151.218C150.435 149.78 149.033 149.035 148.133 149.554C147.233 150.074 147.177 151.661 148.008 153.099C148.838 154.538 150.241 155.283 151.14 154.763Z" fill="#FFE3CA"/>
<path d="M146.552 152.427C158.097 149.296 167.246 143.2 169.414 137.526C171.577 131.852 156.901 128.914 153.967 132.243C151.033 135.571 140.525 145.565 146.552 152.427Z" fill="#0E538C"/>
<path d="M151.184 156.777C152.255 156.777 153.123 155.909 153.123 154.838C153.123 153.767 152.255 152.899 151.184 152.899C150.114 152.899 149.245 153.767 149.245 154.838C149.245 155.909 150.114 156.777 151.184 156.777Z" fill="#1A7FC1"/>
<path d="M153.123 166.724C148.835 165.807 143.231 174.844 143.773 176.737C144.314 178.629 158.198 230.786 200.799 227.268C200.934 226.726 200.799 222.941 200.799 222.941C200.799 222.941 165.238 227.705 153.123 166.724Z" fill="#34A2F4"/>
<path d="M120.198 77.3533H93.8023C81.5023 77.3533 71.5283 87.3272 71.5283 99.6273C71.5283 111.927 81.5023 121.901 93.8023 121.901H102.127C108.657 126.766 123.987 138.145 123.387 137.321C122.865 136.601 117.384 127.533 113.994 121.901H120.198C132.498 121.901 142.472 111.927 142.472 99.6273C142.472 87.3272 132.498 77.3533 120.198 77.3533ZM178.397 56.4765C178.397 43.2514 167.676 32.5305 154.451 32.5305C141.226 32.5305 130.505 43.2514 130.505 56.4765C130.505 69.7016 141.226 80.4225 154.451 80.4225C155.945 80.4225 157.404 80.2793 158.821 80.0161L156.212 92.4671L171.802 72.9759L171.79 72.9798C175.885 68.6836 178.397 62.8742 178.397 56.4765Z" fill="#1A7FC1"/>
<path d="M200.466 223.707C200.818 223.603 202.676 223.467 202.893 223.165C203.109 222.864 203.891 220.607 204.541 220.479C205.192 220.348 205.757 224.114 204.541 226.088C203.372 227.632 202.289 226.85 201.94 226.893C201.592 226.935 199.858 226.85 199.858 226.85L200.466 223.707Z" fill="#FCD2B1"/>
<path d="M371.598 377.381C379.285 377.381 382.528 371.242 383.809 364.728C385.253 357.382 384.192 349.56 384.192 349.56H359.008C359.008 349.56 358.969 349.858 358.915 350.392C358.443 355.018 356.926 377.381 371.598 377.381Z" fill="#B6E7FF"/>
<path d="M359.004 349.564C359.004 350.114 364.643 350.559 371.598 350.559C378.553 350.559 384.192 350.114 384.192 349.564C384.192 349.014 378.553 348.569 371.598 348.569C364.643 348.565 359.004 349.011 359.004 349.564Z" fill="#85DDFF"/>
<path d="M337.496 279.739C337.496 279.739 350.779 299.946 358.748 312.281C366.718 324.616 368.804 327.174 369.752 331.16C370.7 335.143 371.556 349.85 371.556 349.85H372.144C372.144 349.85 371.939 337.369 371.219 333.169C370.526 329.109 371.269 327.65 371.838 323.381C372.407 319.112 373.166 312.281 368.85 307.536C364.535 302.791 365.673 298.142 364.155 295.015C362.638 291.884 350.872 288.091 349.355 284.863C347.838 281.635 341.196 279.642 337.496 279.739Z" fill="#2A94F4"/>
<path d="M337.496 279.739C337.496 279.739 341.672 284.484 344.517 286.094C347.362 287.708 348.693 286.284 350.872 290.173C353.055 294.063 353.136 295.77 355.137 297.763C357.135 299.756 359.507 299.849 359.697 304.215C359.886 308.577 358.748 312.277 358.748 312.277C358.748 312.277 338.352 280.784 337.496 279.739Z" fill="#41AAF7"/>
<path d="M370.503 349.847H369.907C369.907 349.847 369.729 345.806 368.123 343.844C367.089 342.578 362.692 341.142 358.346 339.42C355.954 338.472 353.574 337.438 351.782 336.296C346.727 333.088 341.916 322.746 341.502 320.904C341.355 320.262 341.293 319.875 341.297 319.607V319.6C341.309 319.104 341.552 319.031 341.978 318.531C342.183 318.292 342.799 318.373 343.55 318.601C345.729 319.267 347.567 320.757 348.705 322.731C349.758 324.554 351.441 326.833 353.504 327.387C357.069 328.339 356.775 328.931 358.091 332.558C359.403 336.184 362.72 336.776 366.876 341.057C371.037 345.33 370.503 349.847 370.503 349.847Z" fill="#2A94F4"/>
<path d="M358.346 339.42C355.954 338.472 353.574 337.438 351.782 336.296C346.727 333.088 341.916 322.746 341.502 320.904C341.355 320.262 341.293 319.874 341.297 319.607C341.313 319.727 341.545 321.365 344.177 322.452C346.909 323.578 347.443 323.578 347.799 325.305C348.155 327.027 348.457 328.869 349.882 329.225C351.31 329.581 352.2 327.979 353.326 330.592C354.456 333.204 354.994 334.098 356.032 334.454C357.069 334.81 357.858 334.276 358.091 336.296C358.23 337.531 358.307 338.7 358.346 339.42Z" fill="#41AAF7"/>
<path d="M374.869 349.847H375.573C375.573 349.847 376.951 324.829 378.851 322.506C380.074 321.009 384.115 318.319 389.266 316.279C392.099 315.157 394.917 313.93 397.042 312.579C403.026 308.778 408.727 296.528 409.218 294.346C409.392 293.587 409.466 293.126 409.462 292.809V292.801C409.45 292.213 409.156 292.124 408.657 291.536C408.417 291.249 407.685 291.35 406.795 291.621C404.214 292.406 402.039 294.175 400.688 296.509C399.442 298.669 397.444 301.37 395.002 302.02C390.78 303.147 391.128 303.851 389.572 308.143C388.016 312.44 384.092 313.14 379.165 318.206C374.234 323.28 374.869 349.847 374.869 349.847Z" fill="#2A94F4"/>
<path d="M389.266 316.283C392.099 315.16 394.917 313.933 397.042 312.583C403.026 308.782 408.727 296.532 409.218 294.349C409.392 293.591 409.466 293.13 409.462 292.813C409.446 292.956 409.168 294.895 406.048 296.184C402.813 297.519 402.178 297.519 401.756 299.563C401.334 301.602 400.978 303.785 399.291 304.207C397.603 304.629 396.547 302.729 395.211 305.825C393.872 308.921 393.233 309.978 392.007 310.4C390.776 310.822 389.843 310.187 389.568 312.583C389.406 314.042 389.313 315.427 389.266 316.283Z" fill="#41AAF7"/>
<path d="M371.598 377.38C379.285 377.38 382.528 371.242 383.809 364.728C376.274 361.872 366.783 357.293 358.911 350.392C358.443 355.017 356.926 377.38 371.598 377.38Z" fill="#CCE9FF"/>
<path d="M47.7023 374.238C42.249 374.238 39.9461 369.884 39.0404 365.262C38.0187 360.049 38.7695 354.503 38.7695 354.503H56.639C56.639 354.503 56.6661 354.716 56.7048 355.091C57.0377 358.373 58.1097 374.238 47.7023 374.238Z" fill="#B6E7FF"/>
<path d="M56.6351 354.503C56.6351 354.894 52.6332 355.211 47.6984 355.211C42.7637 355.211 38.7618 354.894 38.7618 354.503C38.7618 354.112 42.7637 353.794 47.6984 353.794C52.637 353.794 56.6351 354.112 56.6351 354.503Z" fill="#85DDFF"/>
<path d="M25.4554 304.966C25.4554 304.966 34.8798 319.302 40.5305 328.053C46.1851 336.803 47.6636 338.619 48.3371 341.448C49.0105 344.273 49.6143 354.708 49.6143 354.708H50.3535C50.3535 354.708 50.8257 345.891 49.951 342.996C49.0763 340.101 49.413 338.959 49.8155 335.929C50.2181 332.898 50.756 328.053 47.6946 324.689C44.6331 321.326 45.4382 318.024 44.3622 315.807C43.2862 313.585 34.9378 310.895 33.8619 308.604C32.7937 306.313 28.0834 304.9 25.4554 304.966Z" fill="#2A94F4"/>
<path d="M25.4554 304.966C25.4554 304.966 28.4163 308.333 30.4366 309.475C32.4569 310.62 33.3974 309.61 34.9456 312.37C36.4937 315.129 36.5518 316.341 37.9722 317.754C39.3888 319.166 41.0724 319.236 41.2078 322.332C41.3433 325.428 40.5344 328.053 40.5344 328.053C40.5344 328.053 26.0631 305.705 25.4554 304.966Z" fill="#41AAF7"/>
<path d="M47.4004 354.704H46.727C46.727 354.704 46.5257 350.129 44.7066 347.908C43.5339 346.476 38.5566 344.846 33.6335 342.895C30.9243 341.82 28.2305 340.651 26.1985 339.358C20.4781 335.724 15.0248 324.012 14.5565 321.926C14.39 321.198 14.3165 320.757 14.3204 320.455V320.447C14.332 319.886 14.6106 319.801 15.0906 319.236C15.3228 318.961 16.0195 319.058 16.8709 319.317C19.3402 320.068 21.4186 321.759 22.7113 323.993C23.9034 326.059 25.8115 328.641 28.1492 329.264C32.186 330.344 31.8531 331.013 33.3432 335.12C34.8295 339.226 38.5837 339.896 43.294 344.742C48.0042 349.587 47.4004 354.704 47.4004 354.704Z" fill="#2A94F4"/>
<path d="M33.6335 342.896C30.9243 341.82 28.2305 340.651 26.1985 339.358C20.4781 335.724 15.0248 324.012 14.5565 321.926C14.39 321.198 14.3165 320.757 14.3204 320.455C14.3358 320.594 14.6029 322.444 17.5831 323.679C20.6755 324.956 21.2832 324.956 21.6857 326.911C22.0882 328.862 22.4288 330.948 24.0427 331.354C25.6567 331.757 26.6668 329.941 27.9441 332.902C29.2252 335.863 29.8328 336.873 31.0094 337.276C32.186 337.678 33.0762 337.074 33.3394 339.362C33.4981 340.755 33.5871 342.083 33.6335 342.896Z" fill="#41AAF7"/>
<path d="M47.7023 374.238C42.249 374.238 39.9461 369.884 39.0404 365.262C44.3854 363.234 51.1198 359.987 56.7048 355.091C57.0376 358.373 58.1097 374.238 47.7023 374.238Z" fill="#CCE9FF"/>
</svg>
