<svg width="540" height="551" viewBox="0 0 540 551" fill="none" xmlns="http://www.w3.org/2000/svg">
<path opacity="0.37" d="M47.5135 448.372C48.6876 451.283 49.9854 454.194 51.4068 456.981C72.5419 498.538 115.43 524.737 161.161 529.444C197.746 533.16 233.342 521.206 263.933 501.697C294.461 482.25 318.934 454.875 352.861 440.63C400.693 420.625 454.026 404.832 491.538 362.469C534.179 314.346 550.617 241.388 530.533 179.825C511.004 119.749 446.177 100.302 395.811 73.856C305.276 26.2286 179.886 -5.41975 85.6433 50.5068C-27.263 117.458 -6.74585 269.444 29.0356 374.918C37.1931 398.948 38.1818 424.837 47.5135 448.372Z" fill="#CCE9FF"/>
<path d="M105.11 163.599L104.924 162.422H103.75C80.8848 162.422 73.4689 155.052 73.4071 154.99L72.4183 153.875L71.4296 154.99C71.3678 155.052 64.0137 162.422 41.0864 162.422H39.9122L39.7268 163.599C39.665 163.97 34.8447 200.883 71.8004 219.835L72.4183 220.144L73.0363 219.835C110.116 200.883 105.11 163.97 105.11 163.599ZM99.548 186.452C94.9749 199.706 85.8287 209.987 72.3565 217.048C58.8844 209.987 49.7382 199.706 45.1651 186.452C41.828 176.729 42.0133 168.244 42.2605 165.209C61.2946 164.961 69.761 159.883 72.3565 157.777C74.9521 159.821 83.4185 164.961 102.453 165.209C102.7 168.306 102.885 176.729 99.548 186.452ZM141.386 116.157L140.088 112.751C138.914 112.627 137.801 112.317 136.689 111.945L134.032 114.423L126.369 108.911L127.852 105.566C127.11 104.637 126.492 103.646 125.998 102.593L122.352 102.47L120.807 93.1175L124.206 91.8169C124.329 90.6401 124.638 89.5253 125.009 88.4105L122.537 85.7473L128.037 78.0056L131.374 79.492C132.301 78.7488 133.29 78.1294 134.341 77.634L134.464 73.9798L143.796 72.4315L145.094 75.8379C146.268 75.9617 147.38 76.2714 148.493 76.643L151.15 74.1656L158.813 79.6778L157.33 83.0222C158.071 83.9512 158.689 84.9422 159.184 85.9951L162.83 86.1189L164.375 95.471L160.976 96.7716C160.791 97.9484 160.543 99.0632 160.173 100.178L162.645 102.841L157.144 110.583L153.807 109.097C152.88 109.84 151.892 110.459 150.841 110.955L150.717 114.609L141.386 116.157ZM136.071 108.973L136.813 109.282C138.172 109.84 139.655 110.149 141.139 110.273L141.942 110.335L143.054 113.246L148.184 112.379L148.307 109.282L149.049 108.973C150.408 108.353 151.644 107.548 152.818 106.619L153.436 106.124L156.279 107.424L159.307 103.213L157.144 100.921L157.453 100.178C158.01 98.8154 158.319 97.329 158.442 95.8426L158.504 95.0375L161.409 93.9226L160.543 88.7821L157.453 88.6582L157.144 87.915C156.526 86.5525 155.723 85.3138 154.796 84.137L154.302 83.5177L155.599 80.6687L151.397 77.634L149.111 79.7397L148.369 79.43C147.009 78.8726 145.526 78.563 144.043 78.4391L143.24 78.3772L142.127 75.4663L136.998 76.3333L136.874 79.43L136.133 79.7397C134.773 80.3591 133.537 81.1642 132.363 82.0932L131.745 82.5887L128.902 81.2881L125.874 85.4996L128.037 87.7912L127.728 88.5344C127.172 89.8969 126.863 91.3833 126.739 92.8698L126.678 93.6749L123.773 94.7897L124.638 99.9303L127.728 100.054L128.037 100.797C128.655 102.16 129.459 103.399 130.386 104.575L130.88 105.195L129.582 108.044L133.784 111.078L136.071 108.973ZM142.498 104.637C140.397 104.637 138.296 103.956 136.565 102.717C131.931 99.4348 130.88 92.9936 134.155 88.3486C137.431 83.7035 143.858 82.6506 148.493 85.9331C150.717 87.5434 152.201 89.8969 152.695 92.622C153.128 95.3471 152.51 98.0722 150.965 100.302C149.358 102.531 147.009 104.018 144.29 104.513C143.61 104.575 143.054 104.637 142.498 104.637ZM142.498 86.6144C140.088 86.6144 137.74 87.7292 136.256 89.835C135.082 91.5072 134.588 93.551 134.959 95.5949C135.329 97.6387 136.38 99.3729 138.049 100.55C139.717 101.726 141.757 102.222 143.796 101.85C145.835 101.479 147.566 100.426 148.74 98.7535C149.914 97.0813 150.408 95.0375 150.038 92.9936C149.667 90.9498 148.616 89.2156 146.948 88.0389C145.588 87.1099 144.043 86.6144 142.498 86.6144ZM437.649 217.11L434.744 209.492C431.654 209.12 428.565 208.439 425.66 207.386L419.727 212.96L403.66 201.502L406.997 194.07C405.081 191.655 403.412 188.992 402.053 186.143L393.957 185.895L390.682 166.386L398.283 163.475C398.654 160.378 399.334 157.281 400.384 154.37L394.822 148.425L406.255 132.322L413.671 135.666C416.081 133.746 418.739 132.074 421.581 130.712L421.828 122.598L441.295 119.316L444.2 126.934C447.29 127.305 450.379 127.986 453.284 129.039L459.217 123.465L475.284 134.923L471.947 142.355C473.863 144.771 475.532 147.434 476.891 150.283L484.987 150.53L488.262 170.04L480.661 172.951C480.29 176.047 479.61 179.144 478.56 182.055L484.122 188.001L472.689 204.104L465.273 200.759C462.863 202.679 460.205 204.351 457.363 205.714L457.116 213.827L437.649 217.11ZM424.795 203.422L425.784 203.794C429.059 205.033 432.52 205.838 436.042 206.147L437.155 206.271L439.812 213.208L453.655 210.854L453.902 203.422L454.891 202.989C458.104 201.564 461.132 199.644 463.852 197.353L464.655 196.671L471.453 199.706L479.61 188.248L474.543 182.798L474.914 181.807C476.15 178.525 476.953 175.056 477.262 171.526L477.324 170.411L484.245 167.748L481.897 153.875L474.481 153.627L474.048 152.636C472.627 149.416 470.711 146.381 468.425 143.656L467.745 142.851L470.773 136.038L459.34 127.863L453.902 132.941L452.913 132.57C449.638 131.331 446.177 130.526 442.655 130.216L441.542 130.154L438.885 123.217L425.042 125.571L424.795 133.003L423.806 133.437C420.592 134.861 417.564 136.781 414.845 139.073L414.042 139.754L407.244 136.719L399.21 148.177L404.278 153.627L403.907 154.618C402.671 157.901 401.867 161.369 401.558 164.899L401.497 166.014L394.575 168.677L396.924 182.55L404.339 182.798L404.772 183.789C406.193 187.01 408.109 190.044 410.396 192.77L411.076 193.575L408.047 200.387L419.48 208.563L424.795 203.422ZM439.379 190.664C434.868 190.664 430.357 189.301 426.402 186.514C416.328 179.33 413.98 165.271 421.149 155.176C428.317 145.08 442.346 142.727 452.419 149.911C462.492 157.095 464.84 171.155 457.672 181.25C453.284 187.381 446.363 190.664 439.379 190.664ZM439.441 149.23C433.508 149.23 427.638 152.017 423.991 157.219C421.025 161.369 419.913 166.386 420.716 171.402C421.581 176.419 424.3 180.754 428.441 183.727C436.969 189.797 448.835 187.815 454.891 179.268C457.795 175.118 458.97 170.102 458.166 165.085C457.301 160.068 454.582 155.733 450.441 152.76C447.042 150.345 443.211 149.23 439.441 149.23ZM136.751 356.462C133.784 348.1 130.386 338.686 134.155 329.025C139.223 316.019 128.47 309.33 119.015 303.322C110.857 298.243 103.194 293.413 105.79 285.423C108.632 276.752 108.447 270.063 105.233 265.666C102.514 261.95 97.694 259.968 91.267 260.03C86.1377 260.092 81.5646 253.775 76.6824 247.148C70.9352 239.344 65.0643 231.293 57.6484 233.089C56.3507 233.398 55.3001 234.142 54.6821 235.318C52.0865 240.211 56.1653 251.855 60.553 264.242C65.2497 277.619 70.6262 292.731 67.1036 299.172C63.2721 306.233 70.1936 312.674 77.5476 319.549C85.3343 326.795 94.1715 335.032 91.8231 345.375C89.5984 355.037 89.104 358.629 90.4636 360.735C91.5141 362.407 93.6771 362.779 96.9524 363.398C99.1772 363.832 102.02 364.327 105.481 365.442C120.374 370.087 124.7 379.749 124.762 379.873L124.947 380.306L125.38 380.244C132.549 379.129 136.751 377.086 138.728 373.803C138.852 373.617 138.914 373.431 139.037 373.246C141.139 368.848 139.099 363.088 136.751 356.462Z" fill="#FFB750"/>
<path d="M98.6828 338.005C101.155 341.845 102.947 345.19 102.762 349.897C102.638 354.294 101.958 358.629 101.587 362.965C101.526 363.894 101.464 364.761 101.402 365.628C100.166 364.575 98.9918 363.522 97.7558 362.469C97.1996 362.407 96.6434 362.407 96.0255 362.407C97.7558 363.832 99.548 365.38 101.278 366.928C101.093 369.963 101.031 372.998 101.031 376.033C101.031 377.829 100.969 379.749 101.093 381.545C99.4862 380.554 97.8176 379.563 96.2727 378.572C91.4523 375.599 86.941 372.812 83.4803 371.326C80.823 370.211 77.8566 369.22 75.0139 368.291C67.598 365.876 59.9968 363.398 57.463 358.134C56.1653 355.409 56.2889 352.126 57.8338 348.162C61.7272 337.943 58.081 336.209 51.963 333.236C47.5134 331.069 41.4572 328.158 35.4009 320.787C32.7435 317.567 30.3952 314.78 28.294 312.364C22.0524 304.994 18.5916 300.969 19.0242 298.615C19.1478 298.058 19.4568 297.562 20.0748 297.067C20.3838 296.819 20.7546 296.571 21.249 296.323C23.5973 295.023 25.9457 296.014 28.603 297.129C32.1874 298.615 36.5751 300.535 42.6931 297.376C47.5134 294.899 52.8899 292.607 56.1035 294.465C58.3282 295.704 59.626 298.925 60.0586 304.189C60.1822 305.861 60.7384 307.038 61.6654 307.719C63.0249 308.71 65.1261 308.586 67.5362 308.091C69.2048 310.383 71.3678 311.497 73.9633 312.426C77.6094 313.727 80.3286 314.904 82.9859 317.877C88.6714 324.318 94.1715 330.883 98.6828 338.005Z" fill="#2A94F4"/>
<path d="M78.969 348.224C75.2611 345.747 72.0476 339.739 68.9576 333.918C64.7553 325.99 60.3676 317.815 54.3731 318C44.7325 318.248 36.1425 306.852 36.0189 306.79L35.2155 307.41C35.5863 307.905 44.2381 319.301 54.3731 319.053C59.7496 318.929 64.0137 326.795 68.0307 334.475C71.1824 340.359 74.4577 346.49 78.351 349.153C80.6994 350.702 85.0253 353.86 90.1546 357.886V356.585C85.6433 352.807 81.6264 349.958 78.969 348.224Z" fill="#F1FAEE"/>
<path d="M404.648 424.961C404.648 424.961 410.21 411.087 400.075 391.392C389.879 371.697 381.659 374.732 406.193 359.558C430.728 344.384 406.317 296.695 427.205 290.626C448.093 284.556 466.2 207.324 482.082 217.172C497.965 227.019 476.768 264.861 488.139 276.257C499.448 287.653 500.993 302.083 477.571 313.789C454.149 325.494 494.195 370.211 462.43 383.836C430.666 397.462 439.812 450.911 404.648 424.961Z" fill="#FFB750"/>
<path d="M414.351 439.639C414.289 439.453 410.89 421.74 421.705 398.824C432.705 375.475 437.958 349.958 435.795 330.511C434.621 319.982 441.357 315.895 447.846 311.931C454.273 308.029 460.885 303.941 460.514 293.598C460.206 284.246 464.161 262.322 464.284 261.393L465.706 261.64C465.644 261.888 461.627 284.37 461.936 293.536C462.307 304.747 455.323 309.02 448.587 313.108C442.16 317.009 436.166 320.725 437.216 330.325C439.441 349.958 434.126 375.785 423.003 399.382C412.435 421.864 415.71 439.144 415.772 439.329L414.351 439.639Z" fill="#F1FAEE"/>
<path d="M498.706 324.565C507.543 320.354 516.937 322.274 512.055 331.13C507.173 339.987 499.88 340.668 501.24 347.667C502.599 354.665 506.184 362.283 494.689 366.743C483.195 371.14 477.818 370.397 470.835 383.341C463.79 396.285 461.38 405.885 449.329 402.788C437.278 399.63 447.29 383.713 453.531 377.024C453.531 377.024 461.998 369.839 461.874 356.895C461.751 343.951 456.436 335.28 473.121 336.147C489.807 336.89 492.712 327.414 498.706 324.565Z" fill="#0B4870"/>
<path d="M447.413 411.831C447.908 410.158 459.526 370.087 469.043 365.752C478.745 361.292 483.998 349.649 486.285 343.146C489.251 334.661 501.92 332.988 502.414 332.926L502.599 334.351C502.476 334.351 490.301 335.961 487.644 343.579C484.801 351.816 479.363 362.593 469.661 367.052C460.762 371.14 448.958 411.831 448.835 412.264L447.413 411.831ZM141.324 379.563C122.29 374.794 122.043 364.513 121.796 354.603C121.61 346.49 121.425 338.81 111.104 334.103C97.4468 327.848 97.1379 316.266 96.8289 306.047C96.5817 298.429 96.3963 291.245 90.7108 287.343C77.0532 277.991 65.4969 255.323 65.3733 255.075L66.4239 254.518C66.5475 254.766 77.9184 277.124 91.3906 286.352C97.5704 290.564 97.8176 298.058 98.003 305.985C98.312 316.328 98.621 327.105 111.599 332.988C122.537 338.005 122.784 346.428 122.97 354.542C123.217 364.451 123.464 373.865 141.633 378.386L141.324 379.563Z" fill="#F1FAEE"/>
<path d="M115.677 370.397H428.317V144.213C428.317 140.993 425.722 138.329 422.446 138.329H121.548C118.335 138.329 115.677 140.931 115.677 144.213V370.397Z" fill="#F1FAEE"/>
<path d="M416.681 328.228L126.721 328.228V149.672L416.681 149.672V328.228Z" fill="#0B4870" stroke="#F1FAEE" stroke-width="0.5" stroke-miterlimit="10"/>
<path d="M428.317 336.89H115.801L81.5646 465.032H462.492L428.317 336.89Z" fill="#F2F2F2"/>
<path d="M127.605 359.372H146.824C147.627 359.372 148.245 359.992 148.06 360.673L146.206 369.034C146.082 369.53 145.588 369.901 144.97 369.901H125.442C124.638 369.901 124.02 369.282 124.206 368.539L126.369 360.178C126.492 359.744 126.987 359.372 127.605 359.372ZM155.599 359.372H170.122L168.206 369.963H153.375L155.599 359.372ZM177.353 359.372H191.875L190.392 369.963H175.56L177.353 359.372ZM199.168 359.372H213.69L212.578 369.963H197.746L199.168 359.372ZM220.921 359.372H235.443L234.764 369.963H219.932L220.921 359.372ZM242.674 359.372H257.197L256.949 369.963H242.118L242.674 359.372ZM416.946 359.372H395.131L397.48 369.963H419.665L416.946 359.372ZM387.901 359.372H373.378L375.294 369.963H390.126L387.901 359.372ZM366.148 359.372H351.625L353.108 369.963H367.94L366.148 359.372ZM344.333 359.372H329.81L330.922 369.963H345.754L344.333 359.372ZM322.58 359.372H308.057L308.737 369.963H323.568L322.58 359.372ZM300.826 359.372H286.304L286.551 369.963H301.383L300.826 359.372ZM264.489 359.372H279.012L279.197 369.963H264.489V359.372ZM121.239 377.829H151.521L149.79 388.729H118.891L121.239 377.829ZM421.643 377.829H384.193L386.294 388.729H424.548L421.643 377.829ZM376.654 377.829H361.698L363.367 388.729H378.693L376.654 377.829ZM354.159 377.829H339.204L340.44 388.729H355.766L354.159 377.829ZM331.664 377.829H316.709L317.574 388.729H332.838L331.664 377.829ZM309.169 377.829H294.214L294.647 388.729H309.911L309.169 377.829ZM116.666 397.214H147.689L145.403 408.053H113.823L116.666 397.214ZM155.414 397.214H170.926L169.133 408.053H153.313L155.414 397.214ZM178.712 397.214H294.956L295.388 408.053H176.982L178.712 397.214ZM302.742 397.214H318.254L319.119 408.053H303.298L302.742 397.214ZM325.979 397.214H341.49L342.788 408.053H326.967L325.979 397.214ZM349.277 397.214H364.788L366.457 408.053H350.698L349.277 397.214ZM372.513 397.214H388.025L390.126 408.053H374.367L372.513 397.214ZM395.749 397.214H426.772L429.615 408.053H398.036L395.749 397.214ZM286.736 377.829H271.843V388.729H286.984L286.736 377.829ZM264.242 377.829H249.225L248.792 388.729H264.118L264.242 377.829ZM241.747 377.829H226.73L225.865 388.729H241.191L241.747 377.829ZM219.252 377.829H204.235L202.937 388.729H218.263L219.252 377.829ZM196.757 377.829H181.74L180.01 388.729H195.336L196.757 377.829ZM174.263 377.829H159.246L157.144 388.729H172.409L174.263 377.829ZM128.284 352.745L130.756 343.331H137.801L135.515 352.745H128.284ZM144.846 343.331H158.937L157.021 352.745H142.622L144.846 343.331ZM166.043 343.331H180.134L178.527 352.745H164.189L166.043 343.331ZM187.179 343.331H201.269L200.033 352.745H185.695L187.179 343.331ZM208.314 343.331H222.404L221.539 352.745H207.201L208.314 343.331ZM229.449 343.331H243.539L243.045 352.745H228.707L229.449 343.331ZM250.584 343.331H264.674L264.551 352.745H250.213L250.584 343.331ZM271.719 343.331H285.809L286.057 352.745H271.719V343.331ZM292.854 343.331H306.945L307.563 352.745H293.225L292.854 343.331ZM313.99 343.331H328.142L329.069 352.745H314.731L313.99 343.331ZM335.187 343.331H349.277L350.636 352.745H336.299L335.187 343.331ZM356.322 343.331H370.412L372.142 352.745H357.805L356.322 343.331ZM377.457 343.331H391.547L393.648 352.745H379.311L377.457 343.331ZM398.592 343.331H412.682L415.154 352.745H400.817L398.592 343.331Z" fill="#0B4870" stroke="#F1FAEE" stroke-width="0.5" stroke-miterlimit="10"/>
<path d="M452.542 475.003H91.5142C86.0141 475.003 81.5646 470.544 81.5646 465.032H462.492C462.492 470.544 458.043 475.003 452.542 475.003ZM316.338 423.598C315.967 421.369 313.99 419.696 311.765 419.696H232.354C230.067 419.696 228.151 421.369 227.78 423.598L222.837 453.636C222.342 456.485 224.567 459.086 227.41 459.086H316.647C319.552 459.086 321.715 456.485 321.22 453.636L316.338 423.598Z" fill="#D3D3D3"/>
<path d="M146.268 164.837H178.589V168.182H146.268V164.837ZM187.673 189.797H210.971V193.141H187.673V189.797ZM214.617 189.797H230.067V193.141H214.617V189.797ZM146.639 252.598H162.088V255.942H146.639V252.598ZM233.157 189.797H270.545V193.141H233.157V189.797ZM146.639 240.025H170.678V243.37H146.639V240.025ZM180.134 265.047H194.78V268.391H180.134V265.047ZM146.639 265.047H175.684V268.391H146.639V265.047ZM146.639 277.557H162.644V280.902H146.639V277.557ZM184.892 164.837H207.819V168.182H184.892V164.837ZM184.892 202.307H207.819V205.652H184.892V202.307ZM173.397 214.756H183.223V218.101H173.397V214.756ZM163.633 227.453H185.634V230.797H163.633V227.453ZM188.971 227.453H219.376V230.797H188.971V227.453ZM146.639 214.88H169.566V218.224H146.639V214.88ZM146.639 227.453H160.234V230.797H146.639V227.453ZM187.858 214.88H200.713V218.224H187.858V214.88ZM147.071 290.006H159.925V293.351H147.071V290.006ZM146.577 189.797H169.504V193.141H146.577V189.797ZM166.847 252.598H189.774V255.942H166.847V252.598ZM167.156 277.557H190.083V280.902H167.156V277.557ZM207.881 277.557H230.809V280.902H207.881V277.557ZM146.577 202.307H179.268V205.652H146.577V202.307ZM299.776 164.837H322.703V168.182H299.776V164.837ZM218.078 290.006H241.005V293.351H218.078V290.006ZM329.81 164.837H345.136V168.182H329.81V164.837ZM381.783 177.348H397.109V180.692H381.783V177.348ZM213.999 164.837H243.23V168.182H213.999V164.837ZM327.833 177.348H357.063V180.692H327.833V177.348ZM291.989 189.797H321.22V193.141H291.989V189.797ZM253.983 202.307H283.214V205.652H253.983V202.307ZM324.866 189.797H345.631V193.141H324.866V189.797ZM264.798 164.837H294.029V168.182H264.798V164.837ZM231.488 202.307H248.607V205.652H231.488V202.307ZM218.078 252.784H235.196V256.128H218.078V252.784ZM248.607 164.837H259.298V168.182H248.607V164.837ZM213.999 202.307H224.69V205.652H213.999V202.307ZM364.108 177.348H374.8V180.692H364.108V177.348ZM146.268 177.348H163.015V180.692H146.268V177.348ZM190.948 240.087H204.173V243.432H190.948V240.087ZM167.156 177.348H172.532V180.692H167.156V177.348ZM278.023 177.348H322.703V180.692H278.023V177.348ZM235.196 277.557H279.877V280.902H235.196V277.557ZM176.487 177.348H181.987V180.692H176.487V177.348ZM259.298 177.348H273.882V180.692H259.298V177.348ZM273.944 189.797H288.529V193.141H273.944V189.797ZM198.797 290.006H213.381V293.351H198.797V290.006ZM224.381 177.348H255.466V180.692H224.381V177.348ZM195.398 252.784H213.567V256.128H195.398V252.784ZM194.285 277.557H203.37V280.902H194.285V277.557ZM209.241 177.348H219.932V180.692H209.241V177.348ZM173.274 189.797H183.965V193.141H173.274V189.797ZM175.375 240.087H186.066V243.432H175.375V240.087ZM186.561 177.348H205.224V180.692H186.561V177.348Z" fill="#F1FAEE"/>
<path d="M343.035 202.431C343.035 202.431 348.473 211.659 350.76 213.146C353.85 215.19 351.934 217.234 350.451 217.295C348.968 217.295 341.428 217.853 339.76 215.933C338.091 214.013 337.288 208.377 335.743 206.891C334.198 205.404 332.591 199.52 336.484 198.096C339.883 196.795 343.035 202.431 343.035 202.431Z" fill="#FFB750"/>
<path d="M340.625 198.406C340.625 198.406 346.867 209.244 347.917 210.792C348.968 212.403 345.878 212.403 343.962 211.659C342.046 210.916 337.226 203.174 336.546 201.75C335.743 200.078 336.423 198.158 336.423 198.158L340.625 198.406Z" fill="#FFE3CA"/>
<path d="M334.321 204.165L335.805 215.252L336.546 215.314L336.299 207.324L334.321 204.165ZM289.085 202.431C289.085 202.431 294.523 211.659 296.81 213.146C299.9 215.19 297.984 217.234 296.501 217.295C295.017 217.295 287.478 217.853 285.809 215.933C284.141 214.013 283.337 208.377 281.793 206.891C280.248 205.404 278.579 199.335 282.534 198.096C285.995 196.981 289.085 202.431 289.085 202.431Z" fill="#FFB750"/>
<path d="M287.045 198.406C287.045 198.406 292.916 209.182 294.029 210.792C295.079 212.403 291.989 212.403 290.074 211.659C288.158 210.916 283.337 203.174 282.658 201.75C281.854 200.078 282.534 198.158 282.534 198.158L287.045 198.406Z" fill="#FFE3CA"/>
<path d="M280.433 204.165L281.854 215.252L282.658 215.314L282.411 207.324L280.433 204.165Z" fill="#FFB750"/>
<path d="M264.983 118.387L314.175 140.869C314.175 140.869 319.675 142.665 320.293 148.796C322.209 167.872 336.423 198.096 336.423 198.096C340.996 200.326 340.625 198.406 340.625 198.406C337.72 189.115 334.26 150.964 332.962 135.666C332.715 132.446 332.529 130.216 332.468 129.473C332.468 128.977 331.911 128.358 330.984 127.615C324.248 122.103 296.439 110.769 296.439 110.769C275.736 110.211 264.983 118.387 264.983 118.387Z" fill="#FFE3CA"/>
<path d="M255.713 128.048C257.258 141.364 276.231 139.878 276.231 139.878H299.22C299.22 139.878 293.164 153.379 290.815 164.713C288.343 176.791 282.472 198.096 282.472 198.096C282.472 198.096 282.843 198.839 287.045 198.406C287.045 198.406 305.091 162.36 312.012 153.256C313.495 151.336 317.759 140.683 318.501 134.366C318.748 132.26 318.625 130.588 317.821 129.906C317.018 129.225 315.164 127.986 312.754 126.438C305.523 121.855 293.04 114.856 286.057 113.308C276.725 111.202 261.955 107.238 261.955 107.238C261.955 107.238 254.169 114.733 255.713 128.048Z" fill="#FFE3CA"/>
<path d="M271.349 25.3615C271.349 25.3615 267.888 18.7965 269.556 11.8599C271.225 4.86132 277.714 -2.07531 287.169 1.14527C296.624 4.36584 304.287 11.6741 298.602 20.221C292.916 28.706 303.731 32.6078 300.95 36.6335C298.169 40.6593 299.22 44.9327 300.394 45.8617C301.568 46.7907 305.338 50.1352 304.905 54.1609C304.473 58.1247 286.551 42.5792 286.551 42.5792C286.551 42.5792 276.849 22.8222 271.349 25.3615Z" fill="#0B4870"/>
<path d="M300.209 109.097C300.209 109.097 298.787 116.033 262.017 107.3C262.017 107.3 274.315 103.213 300.209 109.097Z" fill="#EB4747"/>
<path d="M261.584 109.22C261.028 110.335 260.472 111.388 259.854 112.503C273.264 112.874 286.736 113.308 300.147 113.68C298.046 106.557 298.725 96.8955 299.096 89.5872C299.529 80.6068 304.473 74.4134 303.978 65.371C306.636 65.8045 307.068 65.8665 309.726 66.3C305.647 54.6564 304.287 48.8965 291.619 44.4372C287.478 42.9508 284.821 42.7031 280.371 43.0747C265.725 44.3134 261.337 44.4372 254.107 57.7531C265.354 59.5492 263.5 63.5749 266.899 74.8469C268.568 80.2971 270.298 86.4286 269.433 92.1885C268.568 97.8245 261.584 104.08 261.584 109.22Z" fill="#F1FAEE"/>
<path d="M284.944 47.2243C278.95 46.1095 280.248 42.765 280.248 42.765C280.248 42.765 280.495 40.907 280.618 38.4916C280.618 37.8722 280.68 37.2529 280.68 36.5716C280.68 35.5807 280.618 34.5897 280.495 33.5988C280 29.573 291.371 31.9885 291.371 31.9885C291.371 31.9885 290.692 40.1638 292.298 42.5792C293.843 45.0566 290.939 48.401 284.944 47.2243Z" fill="#FFE3CA"/>
<path d="M273.512 42.765C273.512 42.765 285.624 56.7621 290.074 59.9827C290.074 59.9827 295.203 55.3377 292.051 43.0747C292.051 43.0747 286.242 40.1018 273.512 42.765ZM273.882 9.07283C273.882 9.07283 267.579 21.2119 273.821 32.6697C280.062 44.1276 292.298 27.6531 293.04 25.7331C293.843 23.8132 298.046 12.8508 289.703 9.56831C281.36 6.22386 275.675 5.79032 273.882 9.07283Z" fill="#FFE3CA"/>
<path d="M285.995 33.9084C285.995 33.9084 284.882 36.3239 280.618 38.4916C280.618 37.8722 280.68 37.2529 280.68 36.5716C280.68 36.5716 283.585 36.2619 285.995 33.9084Z" fill="#FFE3CA"/>
<path d="M222.528 98.32C222.528 98.32 219.561 99.6206 218.14 99.0632C216.718 98.4438 214.555 98.32 213.876 98.32C212.949 98.32 210.044 97.2671 210.106 98.4438C210.168 99.5586 214.803 100.364 215.73 100.735C216.657 101.107 212.887 103.151 212.516 104.08C212.145 105.009 216.471 111.078 218.881 109.344C221.292 107.61 222.589 104.142 223.084 103.894C223.578 103.646 224.876 102.717 224.876 102.717L222.528 98.32Z" fill="#FFE3CA"/>
<path d="M213.011 103.522C213.011 103.522 206.027 109.344 205.904 110.149C205.78 110.955 206.151 111.326 206.831 110.769C207.51 110.273 213.752 105.319 213.752 105.319C213.752 105.319 206.769 113.618 206.522 114.237C206.398 114.609 207.078 115.352 207.449 115.104C207.819 114.856 215.297 107.053 215.297 107.053C215.297 107.053 208.746 114.794 208.746 115.414C208.685 115.909 209.488 116.467 210.044 115.909C210.6 115.352 217.089 108.539 217.089 108.539C217.089 108.539 212.702 114.485 213.011 115.042C213.196 115.352 213.752 116.033 214.803 114.485C215.853 112.936 218.82 109.468 218.82 109.468L213.011 103.522Z" fill="#FFE3CA"/>
<path d="M296.81 139.816H276.231C276.231 139.816 257.258 141.364 255.713 127.986C254.169 114.671 261.955 107.238 261.955 107.238C261.955 107.238 271.967 109.902 280.742 112.007C285.13 111.078 290.383 110.459 296.562 110.645C296.562 110.645 333.642 122.908 332.529 129.411C332.529 129.473 317.018 121.174 296.81 139.816Z" fill="#0B4870"/>
<path d="M283.399 116.776L322.703 116.157L302.866 126.252L283.399 116.776Z" fill="#F2F2F2"/>
<path d="M295.635 111.698C295.635 111.698 286.798 115.104 275.983 112.007L275.489 107.982L297.798 109.22L295.635 111.698Z" fill="#F1FAEE"/>
<path d="M302.866 126.252L283.399 118.696V116.776L304.411 124.332L302.866 126.252Z" fill="#D3D3D3"/>
<path d="M295.45 113.618C295.326 115.042 296.81 116.095 298.169 115.538L300.456 114.547C301.136 114.237 301.568 113.556 301.445 112.813C300.518 106.867 298.478 83.7035 301.445 79.6778C302.557 78.1914 303.237 76.8908 303.607 75.7759C305.585 80.8545 307.995 87.4196 308.984 90.9498L327.524 115.723L333.765 117.334C325.979 98.5677 319.737 88.6582 319.737 88.6582C318.501 85.3757 315.04 75.4663 311.95 66.6716C309.973 61.0975 308.242 55.957 307.254 53.2319C306.759 51.8074 305.832 50.6307 304.534 49.8875C301.63 48.1533 296.871 45.4282 292.546 43.3224H292.484C292.36 43.2605 292.237 43.1986 292.051 43.1366C300.332 55.5854 297.119 90.9498 295.45 113.618C295.45 113.556 295.45 113.556 295.45 113.618ZM264.798 44.1276C262.141 44.5611 255.59 50.9403 252.129 57.3815C248.174 64.7516 244.095 73.1128 241.067 75.8379C235.505 80.9165 219.87 98.8154 219.129 98.3819C218.82 98.1961 223.393 103.708 224.011 103.956C224.32 104.08 249.657 82.0313 252.129 78.6868C254.416 75.5282 260.596 62.1504 262.45 62.4601C262.573 62.7698 264.86 67.6626 266.961 74.785C267.023 74.9089 267.023 75.0327 267.084 75.1566C268.568 80.1113 268.444 85.5615 267.641 91.6311C267.023 96.2142 263.624 103.708 261.584 107.362C261.337 107.796 261.399 108.663 261.646 109.282C261.832 109.654 262.017 109.964 262.326 110.087L269.804 112.874L271.534 113.494C272.77 113.989 274.13 113.742 275.118 112.998C275.922 112.441 276.54 111.512 276.663 110.397C278.332 97.6387 280.433 84.5706 282.102 79.6778C289.456 58.1247 279.259 41.8979 279.259 41.8979C279.259 41.8979 267.146 43.2605 264.798 44.1276Z" fill="#FFB750"/>
<path d="M302.866 126.252L314.546 94.2942L352.181 94.9136L341.058 124.394L302.866 126.252Z" fill="#FFB750"/>
<path d="M326.597 108.415C325.422 110.707 325.793 113.246 327.4 113.989C329.007 114.794 331.17 113.556 332.344 111.264C333.518 108.973 333.147 106.433 331.541 105.69C329.934 104.885 327.709 106.124 326.597 108.415Z" fill="#F1FAEE"/>
<path d="M303.731 48.0294C300.95 43.8179 298.973 40.4735 298.725 34.4658C298.54 30.5021 297.675 25.1138 294.956 22.4506C297.798 15.0185 294.461 12.7889 293.102 10.3735C291.433 7.33869 279.073 0.0304561 274.191 7.71029C269.309 15.3282 271.04 23.3177 271.04 23.3177C271.534 19.1062 275.86 13.4082 275.86 13.4082C276.54 17.8056 285.624 24.9899 289.579 27.9008C289.517 27.9628 289.456 28.0866 289.456 28.1486C287.231 31.3691 290.012 34.5897 290.506 37.9961C291.001 41.4025 281.175 50.5687 292.113 55.1519C303.051 59.7969 306.512 52.179 303.731 48.0294ZM104.801 408.796C104.801 408.796 104.554 411.397 92.4411 411.397C80.3286 411.397 62.7159 408.238 62.7159 408.238L90.8344 405.513C90.8344 405.513 101.649 404.956 104.801 408.796Z" fill="#0B4870"/>
<path d="M73.9633 409.725C67.1037 409.725 64.1991 413.255 61.48 414.37C58.7608 415.485 56.0417 417.157 56.0417 417.095C57.5866 414.06 59.7496 413.998 60.862 413.007C61.9744 412.016 61.6654 412.512 59.2552 412.326C57.8956 412.202 55.4237 414.742 53.6933 416.166C52.1484 417.343 51.2214 417.467 51.2214 417.467C51.2214 417.467 53.0135 414.927 55.2383 412.884C57.9574 410.406 61.3564 408.362 62.1598 407.991C63.6429 407.371 68.216 407.248 71.4296 407.681C75.1375 408.177 78.9072 409.725 73.9633 409.725Z" fill="#0B4870"/>
<path d="M62.5923 408.115C62.5923 408.115 57.3394 409.477 56.4125 410.22C55.7945 410.716 53.0753 413.627 53.0753 413.627C53.0753 413.627 55.0529 413.317 56.1653 412.202C57.3394 411.025 62.5923 408.115 62.5923 408.115ZM94.8513 403.47C94.8513 403.47 108.076 404.337 107.149 412.512C106.655 417.157 103.627 418.767 99.6098 418.396C92.1939 417.776 83.7893 416.662 83.7893 416.662L80.0196 403.965L94.8513 403.47Z" fill="#0B4870"/>
<path d="M97.6322 404.584L110.61 362.655C110.61 362.655 112.526 356.523 115.677 357.638C120.189 359.31 117.964 364.327 117.593 367.3C116.79 373.37 117.346 376.033 113.144 390.649C110.548 399.692 108.323 410.096 106.099 416.042C104.554 420.13 101.896 414.246 97.8794 412.636C90.34 409.601 97.6322 404.584 97.6322 404.584ZM98.621 339.863C101.155 347.171 109.003 350.949 116.234 348.286C123.402 345.623 127.234 337.51 124.7 330.201C122.166 322.893 114.318 319.115 107.087 321.778C99.9188 324.442 96.0873 332.555 98.621 339.863Z" fill="#0B4870"/>
<path d="M84.4073 340.544C88.3624 346.49 96.2726 347.977 102.02 343.889L101.217 336.89C106.964 332.741 108.385 324.565 104.43 318.62L101.711 314.594C97.7558 308.648 89.8456 307.162 84.0983 311.25L81.5027 313.108C75.7555 317.257 74.3341 325.432 78.2892 331.378L84.4073 340.544Z" fill="#0B4870"/>
<path d="M79.2162 321.035C79.896 322.026 80.6376 322.955 81.5028 323.884C87.1883 330.078 94.7895 332.431 99.6098 329.892C101.835 332.927 104.368 335.342 106.655 337.2C109.312 339.368 116.11 340.235 116.11 340.235C120.065 344.57 105.234 369.901 104.183 369.777C102.02 369.592 99.239 355.594 101.278 350.516C102.205 348.224 103.689 345.499 103.256 344.26C101.711 339.987 99.548 340.73 99.548 340.73C99.548 340.73 96.7053 344.075 94.4805 343.951C92.194 343.765 88.2389 340.173 88.0535 340.111C87.3737 339.553 86.7557 338.872 86.1995 338.067L80.2668 329.149C78.7218 326.671 78.3511 323.698 79.2162 321.035Z" fill="#FFE3CA"/>
<path d="M124.577 427.748C124.577 427.748 119.756 433.57 118.273 434.189C116.295 435.056 110.239 433.198 110.239 433.198C110.239 433.198 108.632 406.504 106.778 396.099C104.924 385.694 102.205 382.969 102.082 379.687C101.896 374.422 97.5086 372.317 98.2502 368.229C98.9918 364.141 100.29 349.525 100.722 351.445C104.492 368.043 109.127 354.232 110.177 352.064C110.734 350.887 124.577 427.748 124.577 427.748Z" fill="#F1FAEE"/>
<path d="M102.638 346.49C102.638 346.49 96.767 352.931 97.1996 355.471C97.5704 358.01 94.6659 365.937 97.5704 376.962C100.846 389.534 102.576 398.081 103.194 406.319C103.812 414.556 101.031 422.112 102.144 432.207C103.009 440.135 104.801 440.568 104.801 440.568C104.801 440.568 108.323 441.435 110.795 438.338C113.267 435.304 109.559 408.3 108.323 401.612C107.087 394.861 103.132 379.129 102.082 374.484C100.784 368.786 101.031 362.965 101.093 361.292C101.402 355.409 102.144 351.755 102.762 349.525C102.823 349.215 103.132 345.747 102.638 346.49ZM112.897 354.046C116.11 363.336 126.121 368.105 135.268 364.699C144.414 361.292 149.234 351.011 146.021 341.721C142.807 332.431 132.796 327.662 123.65 331.069C114.503 334.413 109.683 344.756 112.897 354.046Z" fill="#0B4870"/>
<path d="M81.4409 513.712L84.7163 539.91L70.5026 546.661L62.6541 548.395L76.6206 537.557L72.0475 513.898L81.4409 513.712Z" fill="#FCBAA2"/>
<path d="M85.6433 543.874L82.5533 544.679L80.4522 542.759L69.0812 548.457L59.008 550.873C59.008 550.873 58.8844 550.068 59.1934 549.634C60.4294 547.962 67.5362 544.308 67.5362 544.308C67.5362 544.308 67.6598 546.723 68.6486 546.785C69.6374 546.847 78.351 542.264 80.3904 541.025C83.8511 538.858 84.5309 537.433 84.7781 537.619C85.5197 537.991 85.6433 543.874 85.6433 543.874Z" fill="#0B4870"/>
<path d="M47.1427 477.295L35.8335 499.591L20.2602 498.848L12.4736 496.557L29.7154 493.646L39.1088 474.57L47.1427 477.295Z" fill="#FCBAA2"/>
<path d="M34.9065 503.555L31.8166 502.812L30.8278 500.087L16.7995 499.901L8.45667 497.919C8.45667 497.919 9.44545 496.804 10.0634 496.495C11.9174 495.69 18.5299 495.318 18.5299 495.318C18.5299 495.318 17.8501 497.238 18.7153 497.733C19.5804 498.291 29.2211 498.6 31.5694 498.415C35.6481 498.105 36.8223 497.238 36.9459 497.486C37.3785 498.353 34.9065 503.555 34.9065 503.555Z" fill="#0B4870"/>
<path d="M129.644 410.592L121.239 414.37L121.301 425.952L63.3958 416.476C63.3958 416.476 57.8957 414.68 54.3731 423.784C49.3674 436.666 36.6369 476.738 36.6369 476.738L44.6707 485.47L69.9464 440.196C69.9464 440.196 121.734 465.404 138.79 459.954C145.341 457.848 150.347 445.833 149.42 433.693C148.678 424.156 146.824 415.423 146.824 415.423L129.644 410.592Z" fill="#FFB750"/>
<path d="M122.29 459.706L80.823 456.609L84.4073 523.002L72.1712 523.436L63.1486 445.647C63.1486 445.647 65.5587 434.065 73.4689 435.799C81.441 437.595 100.599 452.831 122.29 459.706Z" fill="#FFB750"/>
<path d="M150.223 476.366C150.223 476.366 128.47 451.902 122.846 438.091C116.11 421.554 116.666 400.806 115.43 393.932C113.144 381.297 110.363 356.771 109.868 353.736C109.312 350.702 111.228 347.295 111.228 347.295C111.228 347.295 109.807 338.129 113.885 339.12C119.756 340.544 125.565 343.765 127.605 344.756C131.436 346.49 139.285 392.693 139.717 394.923C141.324 402.974 147.195 410.282 151.397 417.776C161.285 435.551 163.819 456.547 163.819 456.547C163.819 456.547 162.583 471.907 150.223 476.366Z" fill="#2A94F4"/>
<path d="M127.79 412.388C127.79 412.388 127.605 415.361 113.762 414.68C99.9188 413.936 79.6488 409.291 79.6488 409.291L111.722 407.805C111.722 407.805 124.02 407.867 127.79 412.388Z" fill="#FFE3CA"/>
<path d="M90.5254 410.902C83.9129 410.778 81.0702 414.184 78.4747 415.237C75.8791 416.29 73.2218 417.838 73.2218 417.838C74.7049 414.927 76.8061 414.865 77.9185 413.936C78.969 413.007 78.7219 413.503 76.3735 413.255C75.0139 413.131 72.6656 415.547 70.997 416.909C69.5138 418.086 68.5869 418.148 68.5869 418.148C68.5869 418.148 70.3172 415.671 72.4802 413.689C75.1375 411.335 78.3511 409.353 79.1544 409.044C80.5758 408.486 84.9635 408.424 88.1153 408.92C91.6378 409.415 95.2839 411.026 90.5254 410.902Z" fill="#FFE3CA"/>
<path d="M79.4634 409.106C79.4634 409.106 74.3959 410.344 73.5307 411.026C72.9128 411.521 70.3172 414.308 70.3172 414.308C70.3172 414.308 72.1712 413.998 73.2836 412.946C74.3959 411.955 79.4634 409.106 79.4634 409.106Z" fill="#FFE3CA"/>
<path d="M116.728 409.106L137.245 398.267C137.245 398.267 137.307 411.397 137.431 416.414C137.554 421.43 139.655 428.491 135.7 429.544C131.745 430.597 129.706 430.039 133.784 432.455C137.863 434.808 136.936 437.286 135.391 439.329C133.846 441.373 140.582 462.183 138.976 463.36C132.61 455.308 125.751 445.337 122.784 438.091C119.015 428.677 117.531 417.9 116.728 409.106Z" fill="#0B4870"/>
<path d="M123.341 403.841L122.537 361.974C122.537 361.974 122.599 348.906 122.846 345.066C123.093 341.102 129.829 345.747 129.829 345.747C129.829 345.747 139.285 358.567 139.47 389.472C139.594 410.158 138.481 420.935 128.964 420.068C120.127 419.263 110.054 417.9 110.054 417.9L105.666 406.442L123.341 403.841Z" fill="#2A94F4"/>
<path d="M121.239 425.952L50.6034 417.095L50.7888 415.609L121.425 424.465L121.239 425.952Z" fill="#D3D3D3"/>
<path d="M90.2782 420.501C90.1546 421.678 89.2276 422.545 88.2388 422.421L52.0248 417.9C51.036 417.776 49.8 416.847 48.9348 413.751L34.9683 377.519C35.1537 376.033 36.3279 375.289 37.3167 375.661L74.3341 381.483C75.3229 381.855 76.0027 382.722 76.3735 384.332L90.2782 420.501Z" fill="#D3D3D3"/>
<path d="M85.7051 421.492L86.0759 421.554L121.425 426.014C120.065 426.571 117.902 426.757 115.492 426.447L85.8905 422.731L85.5197 422.669L55.9181 418.953C53.5079 418.643 51.4686 417.9 50.2326 417.095L85.7051 421.492Z" fill="#D3D3D3"/>
<path d="M123.341 403.841L122.537 361.974C122.537 361.974 123.155 358.443 124.391 355.285C124.7 359.868 126.801 392.879 127.048 397.214C127.357 401.921 131.189 402.417 131.992 403.965C132.858 405.451 132.116 405.761 129.273 405.204C126.492 404.584 127.481 405.08 128.099 406.566C128.717 408.115 127.172 407.681 121.734 405.699C117.779 404.275 110.177 405.699 106.346 406.566L123.341 403.841Z" fill="#0B4870"/>
<path d="M367.569 301.092C360.771 302.889 348.226 309.206 345.569 320.044C341.614 336.333 349.524 360.178 337.041 383.589C333.024 391.021 406.07 401.054 406.07 401.054L420.16 318.806C420.16 318.806 402.547 300.969 398.963 299.73C391.485 297.252 381.165 297.5 367.569 301.092Z" fill="#CCE9FF"/>
<path d="M420.222 318.867C422.756 325.432 429.183 364.513 422.014 373.741C421.211 374.794 425.722 376.466 424.919 381.297C424.795 382.102 423.435 386.004 423.435 386.004L417.626 387.552L404.958 372.874C404.958 372.874 410.087 364.885 416.823 334.599C418.8 325.68 419.666 317.381 420.222 318.867Z" fill="#2A94F4"/>
<path d="M372.266 365.566C372.266 365.566 378.384 381.731 393.154 386.066C395.688 386.809 397.294 389.658 396.058 390.587C394.452 391.764 392.351 392.012 388.643 392.012C380.918 392.012 370.412 389.534 363.182 382.226C352.429 371.45 349.03 366.495 350.142 361.107C351.131 355.594 372.266 365.566 372.266 365.566Z" fill="#FFE3CA"/>
<path d="M347.67 314.594C344.518 319.92 342.726 328.467 342.788 340.73C342.788 350.206 350.698 365.752 351.872 370.521C352.058 371.326 352.552 374.732 352.552 374.732L361.266 383.651L378.755 371.326L373.44 362.841L371.833 363.027C371.833 363.027 370.844 358.32 371.092 356.523C371.339 354.727 366.271 330.263 363.738 314.594C362.316 305.49 350.76 309.33 347.67 314.594Z" fill="#2A94F4"/>
<path d="M363.367 362.655L368.496 361.045L370.597 360.487C370.721 361.974 371.957 362.965 371.957 362.965L367.94 363.46L363.305 364.947L357.867 368.848L363.367 362.655Z" fill="#0B4870"/>
<path d="M392.042 386.004L400.941 383.465C400.941 383.465 403.474 386.995 402.98 387.862C402.486 388.729 402.98 393.932 402.98 393.932L398.654 397.772L395.132 396.533C395.132 396.533 394.884 394.923 396.059 394.799C397.294 394.613 395.255 393.746 394.637 393.374C394.019 392.941 388.89 390.216 392.042 386.004Z" fill="#FFE3CA"/>
<path d="M378.322 300.287C377.333 303.198 378.817 306.481 381.659 307.472L386.727 309.33C389.57 310.382 392.659 308.772 393.648 305.861L398.16 292.484C399.148 289.573 397.665 286.29 394.822 285.237L389.755 283.379C386.912 282.326 383.822 283.937 382.833 286.847L378.322 300.287Z" fill="#FF957E"/>
<path d="M400.446 312.055C399.952 313.975 397.974 315.151 396.12 314.594L380.856 310.197C379.002 309.639 377.89 307.657 378.384 305.675L384.626 282.202C385.12 280.282 387.098 279.106 388.952 279.663L404.216 283.999C406.07 284.556 407.182 286.538 406.688 288.52L400.446 312.055Z" fill="#FFE3CA"/>
<path d="M408.356 286.166C408.48 286.042 406.935 284.308 407.738 280.902C408.789 276.319 405.39 274.461 402.856 274.399C401.373 274.337 396.367 276.752 393.71 277.557C391.053 278.363 391.3 277.31 386.48 276.443C383.266 275.823 382.525 277.619 381.412 280.097C380.3 282.636 380.176 292.298 380.176 292.298C380.609 292.917 381.289 293.413 381.721 292.917C382.154 292.422 383.884 284.68 385.305 282.388C386.665 280.097 392.227 283.751 395.255 285.547C398.221 287.343 400.879 287.653 405.637 286.662C406.193 287.281 406.688 287.962 406.688 288.272C406.688 288.891 405.328 293.289 405.328 293.289C405.328 293.289 407.986 291.616 408.727 290.316C409.098 289.882 409.222 287.777 408.356 286.166Z" fill="#FFB750"/>
<path d="M383.204 300.783C383.019 301.402 382.401 301.836 381.783 301.65L378.508 300.721C377.89 300.535 377.519 299.854 377.704 299.234L379.373 292.979C379.558 292.36 380.176 291.926 380.794 292.112L384.069 293.041C384.687 293.227 385.058 293.908 384.873 294.527L383.204 300.783Z" fill="#FFE3CA"/>
<path d="M381.165 294.837C381.165 294.837 378.693 304.065 377.89 307.162C377.148 309.949 376.592 316.39 391.732 320.725C400.693 323.265 402.176 316.328 402.794 314.099C403.227 312.364 402.733 306.728 402.053 305.49C402.053 305.428 401.064 309.33 401.064 309.33C401.064 309.33 400.199 305.056 395.935 303.879C389.075 301.898 386.356 305.675 383.39 304.685C381.041 303.879 380.362 299.42 381.165 294.837Z" fill="#FFB750"/>
<path d="M391.485 309.02L396.182 310.383C396.8 310.568 397.48 310.197 397.603 309.515L397.789 308.834L390.806 306.852L390.62 307.534C390.497 308.215 390.867 308.834 391.485 309.02Z" fill="#FFE3CA"/>
<path d="M465.953 402.85C463.79 409.106 425.722 432.083 412.929 430.721L374.429 432.641C341.737 428.491 326.226 375.723 326.226 375.723C327.524 362.469 359.783 381.669 371.277 387.614C389.446 397.028 401.002 397.524 401.002 397.524C413.177 398.824 427.267 389.039 442.655 388.729C459.526 388.296 469.414 393.003 465.953 402.85Z" fill="#0B4870"/>
<path d="M382.277 396.533C382.277 396.471 382.277 396.471 382.277 396.533V394.799L448.464 393.56V395.294L448.278 395.604C447.475 397.09 445.93 397.338 444.2 397.4L386.603 398.515C384.873 398.577 383.328 398.329 382.463 396.904L382.277 396.533Z" fill="#D3D3D3"/>
<path d="M398.221 396.471L398.036 396.781C397.789 397.152 397.48 397.462 397.109 397.648L387.036 397.834C385.367 397.895 383.884 397.71 383.019 396.533L382.834 396.285L382.772 396.223V395.418L398.098 395.108L398.221 396.471ZM407.182 395.852L440.245 395.232V394.056L407.12 394.737L407.182 395.852ZM398.592 394.427L406.564 360.487C406.75 359.62 407.615 358.877 408.48 358.815L454.953 357.948C455.818 357.948 456.312 358.629 456.127 359.558L448.155 393.498L398.592 394.427Z" fill="#D3D3D3"/>
<path d="M368.62 441.373C373.193 442.178 376.715 436.666 376.715 436.666L388.581 427.004L386.047 420.439L362.934 431.216C362.934 431.216 363.985 440.568 368.62 441.373Z" fill="#FFE3CA"/>
<path d="M376.654 436.295C376.654 436.295 376.654 436.852 375.788 439.391C374.923 441.931 373.811 442.798 372.699 443.169C368.249 444.532 365.097 443.851 354.468 445.956C343.839 448.062 340.625 446.452 337.535 441.373C334.445 436.295 337.659 432.269 342.85 431.897C350.327 431.34 354.53 432.207 358.423 431.588C362.502 430.968 362.749 429.977 365.159 428.429C367.384 427.005 369.485 435.551 367.384 437.533C365.468 439.268 375.109 439.515 376.654 436.295Z" fill="#FFB750"/>
<path d="M374.429 441.187C370.041 442.55 366.828 441.869 356.198 443.974C345.569 446.08 342.355 444.47 339.265 439.391C337.844 437.038 337.782 434.932 338.586 433.322C336.237 434.994 335.434 437.905 337.535 441.373C340.625 446.452 343.838 448.062 354.468 445.956C365.097 443.851 368.311 444.532 372.698 443.169C373.564 442.922 374.429 442.302 375.17 440.878C374.923 441.002 374.676 441.126 374.429 441.187Z" fill="#F1FAEE"/>
<path d="M376.654 436.48V436.357C376.654 436.419 376.592 436.48 376.53 436.542C376.592 436.48 376.654 436.48 376.654 436.48Z" fill="#E9D6B8"/>
<path d="M353.726 440.258C353.417 440.382 353.108 439.701 352.985 438.772C352.799 436.852 352.367 434.994 351.749 433.074C351.44 432.145 351.44 431.34 351.811 431.216C352.181 431.092 352.799 431.773 353.046 432.702C353.664 434.56 354.035 436.48 354.221 438.338C354.344 439.267 354.035 440.135 353.726 440.258ZM357.002 439.639C356.631 439.701 356.322 439.082 356.198 438.215C356.013 436.418 355.58 434.622 354.962 432.888C354.653 432.021 354.653 431.278 355.086 431.216C355.457 431.154 356.075 431.835 356.384 432.702C356.94 434.437 357.372 436.233 357.558 437.967C357.62 438.834 357.372 439.577 357.002 439.639ZM360.462 439.515C360.092 439.577 359.721 438.896 359.597 437.967C359.288 436.109 358.856 434.313 358.176 432.455C357.867 431.526 357.867 430.782 358.238 430.782C358.67 430.782 359.288 431.464 359.597 432.393C360.277 434.189 360.71 436.047 360.957 437.843C361.08 438.71 360.833 439.453 360.462 439.515Z" fill="#F1FAEE"/>
<path d="M369.423 425.58C369.423 425.58 450.812 390.835 455.447 390.773C471.144 390.649 467.56 407.124 459.588 414.927C450.194 424.094 378.755 440.878 378.755 440.878L369.423 425.58Z" fill="#0B4870"/>
<path d="M401.682 431.65L379.435 409.725L388.952 400.001L413.177 426.509L401.682 431.65Z" fill="#FFE3CA"/>
<path d="M406.255 414.432C406.255 414.432 349.709 360.611 345.94 359.001C333.024 353.551 325.052 368.353 325.484 373.493C326.102 380.12 383.513 434.003 383.513 434.003L406.255 414.432Z" fill="#0B4870"/>
<path d="M439.75 433.322C441.048 434.56 441.295 438.338 441.295 438.338C441.295 438.338 422.446 445.771 415.834 445.894C414.104 445.956 411.014 445.213 408.047 444.346C407.553 444.222 406.379 442.86 405.884 442.736C404.957 442.488 404.772 443.355 404.03 443.107C402.053 442.426 400.57 441.869 400.508 441.745C396.491 432.95 397.851 428.615 397.851 428.615C397.851 428.615 406.502 431.216 405.019 429.172C401.868 424.837 410.952 420.439 412.929 422.731C421.087 431.959 435.919 429.668 439.75 433.322Z" fill="#FFB750"/>
<path d="M440.801 435.18C434.992 437.595 422.817 442.488 420.407 442.674C410.457 443.417 403.536 439.763 398.901 437.595C399.334 438.834 399.828 440.258 400.508 441.745C400.57 441.869 401.991 442.426 404.03 443.107C404.834 443.355 405.019 442.426 405.884 442.736C406.379 442.86 407.491 444.222 408.047 444.346C411.014 445.213 414.104 445.894 415.834 445.894C422.446 445.771 441.295 438.338 441.295 438.338C441.295 438.338 441.295 436.604 440.801 435.18ZM427.514 429.482C427.699 429.853 426.958 430.225 425.907 430.473C423.744 430.906 421.643 431.588 419.542 432.455C418.491 432.888 417.564 433.012 417.441 432.64C417.317 432.269 417.997 431.588 419.048 431.154C421.087 430.287 423.25 429.668 425.351 429.234C426.34 428.924 427.329 429.11 427.514 429.482ZM423.25 427.933C423.435 428.305 422.694 428.801 421.643 429.11C419.542 429.73 417.503 430.597 415.463 431.65C414.474 432.145 413.547 432.331 413.424 431.959C413.3 431.588 413.98 430.782 414.969 430.287C416.946 429.296 418.986 428.429 421.087 427.872C422.137 427.438 423.126 427.562 423.25 427.933ZM419.171 426.571C419.295 426.943 418.615 427.5 417.626 427.872C415.587 428.677 413.609 429.668 411.693 430.844C410.766 431.464 409.901 431.65 409.778 431.216C409.654 430.844 410.272 429.977 411.261 429.358C413.177 428.181 415.154 427.19 417.132 426.447C418.121 426.137 419.048 426.199 419.171 426.571Z" fill="#F1FAEE"/>
</svg>
