<svg width="581" height="387" viewBox="0 0 581 387" fill="none" xmlns="http://www.w3.org/2000/svg">
<path opacity="0.69" d="M554.813 96.63C554.204 94.2006 553.482 91.7468 552.626 89.3622C539.92 53.8163 504.725 25.5806 463.437 13.0123C430.399 2.99509 414.445 -4.33027 383.16 4.37129C351.941 13.0383 315.844 54.153 282.342 58.2216C235.123 63.8988 163.142 42.7358 121.793 67.3297C74.7955 95.2618 58.7091 153.755 67.2117 204.199C75.4435 253.411 131.918 298.651 173.949 328.547C249.486 382.356 330.023 399.341 425.732 375.688C540.385 347.389 575.741 242.432 559.913 155.737C556.302 135.983 559.584 116.24 554.813 96.63Z" fill="#8BD1E9"/>
<g filter="url(#filter0_d_42_6)">
<path d="M396.081 211.069C255.228 326.931 76.0048 281.23 4 243.897C135.68 359.759 369.449 330.793 452.304 278.655C452.798 285.092 454.671 303.372 458.222 325C490.773 272.862 508.527 197.552 515.925 174.379C491.068 177.469 402.985 182.104 362.052 184.034C364.024 184.678 373.592 190.986 396.081 211.069Z" fill="#0ECFDE"/>
<path d="M518.307 175.14C511.01 197.998 493.113 273.834 460.343 326.324L456.83 331.951L455.755 325.405C452.768 307.211 450.963 291.369 450.163 282.89C407.374 308.257 329.688 327.483 246.44 326.776C160.846 326.049 68.8051 304.247 2.34863 245.774L5.15039 241.677C40.8412 260.182 103.276 280.832 174.278 282.432C244.472 284.014 322.915 266.978 392.225 210.985C382.155 202.06 374.88 196.092 369.854 192.247C367.16 190.188 365.129 188.75 363.672 187.799C362.943 187.323 362.374 186.98 361.948 186.745C361.736 186.627 361.571 186.543 361.448 186.486C361.338 186.434 361.285 186.414 361.276 186.411L361.934 181.537C402.922 179.603 490.88 174.974 515.616 171.899L519.495 171.416L518.307 175.14Z" stroke="#E7F3F3" stroke-width="5"/>
</g>
<mask id="path-4-outside-1_42_6" maskUnits="userSpaceOnUse" x="229.65" y="84.0302" width="349" height="64" fill="black">
<rect fill="white" x="229.65" y="84.0302" width="349" height="64"/>
<path d="M234.992 143.241C234.342 143.241 233.788 143.013 233.333 142.557C232.877 142.101 232.65 141.547 232.65 140.895V89.7674C232.65 89.1157 232.877 88.5617 233.333 88.1055C233.788 87.6493 234.342 87.4212 234.992 87.4212H255.198C260.925 87.4212 265.643 88.2684 269.352 89.9629C273.126 91.6574 275.957 94.2643 277.844 97.7836C279.732 101.238 280.675 105.735 280.675 111.274V140.895C280.675 141.547 280.447 142.101 279.992 142.557C279.601 143.013 279.048 143.241 278.332 143.241H234.992ZM243.973 132.879H268.766V111.763C268.766 107.331 267.628 103.91 265.35 101.498C263.137 99.0219 259.591 97.7836 254.71 97.7836H243.973V132.879ZM295.319 120.366C294.668 120.366 294.115 120.138 293.66 119.682C293.204 119.225 292.977 118.671 292.977 118.02V89.7674C292.977 89.1157 293.204 88.5617 293.66 88.1055C294.115 87.6493 294.668 87.4212 295.319 87.4212H303.421C304.137 87.4212 304.69 87.6493 305.08 88.1055C305.536 88.5617 305.764 89.1157 305.764 89.7674V118.02C305.764 118.671 305.536 119.225 305.08 119.682C304.69 120.138 304.137 120.366 303.421 120.366H295.319ZM345.767 98.0769L319.607 98.1746C318.956 98.1746 318.403 97.9465 317.947 97.4903C317.492 97.0341 317.264 96.4802 317.264 95.8284V89.7674C317.264 89.1157 317.492 88.5617 317.947 88.1055C318.403 87.6493 318.956 87.4212 319.607 87.4212H347.426C351.591 87.4212 355.333 88.3336 358.652 90.1584C361.971 91.9181 364.541 94.5576 366.363 98.0769C368.25 101.596 369.194 105.995 369.194 111.274V140.895C369.194 141.547 368.966 142.101 368.511 142.557C368.12 143.013 367.567 143.241 366.851 143.241H341.082C340.366 143.241 339.78 143.013 339.325 142.557C338.934 142.101 338.739 141.547 338.739 140.895V135.225C338.739 134.573 338.934 134.019 339.325 133.563C339.78 133.107 340.366 132.879 341.082 132.879H356.895V111.959C356.895 109.091 356.407 106.614 355.431 104.529C354.454 102.443 353.12 100.847 351.428 99.7388C349.737 98.6308 347.849 98.0769 345.767 98.0769ZM318.728 143.241C318.143 143.241 317.622 143.013 317.166 142.557C316.711 142.101 316.548 141.514 316.678 140.797L325.952 95.1441C326.082 94.4272 326.375 93.8733 326.83 93.4822C327.286 93.0912 327.839 92.9283 328.489 92.9934L335.03 93.1889C335.745 93.2541 336.299 93.5474 336.689 94.0688C337.145 94.5902 337.307 95.1767 337.177 95.8284L328.782 140.797C328.782 141.514 328.522 142.101 328.001 142.557C327.481 143.013 326.895 143.241 326.244 143.241H318.728ZM383.876 120.366C383.226 120.366 382.673 120.138 382.217 119.682C381.761 119.225 381.534 118.671 381.534 118.02V89.7674C381.534 89.1157 381.761 88.5617 382.217 88.1055C382.673 87.6493 383.226 87.4212 383.876 87.4212H391.978C392.694 87.4212 393.247 87.6493 393.638 88.1055C394.093 88.5617 394.321 89.1157 394.321 89.7674V118.02C394.321 118.671 394.093 119.225 393.638 119.682C393.247 120.138 392.694 120.366 391.978 120.366H383.876ZM436.764 133.563C440.604 133.628 443.89 132.912 446.623 131.413C449.422 129.848 451.569 127.698 453.066 124.96C454.628 122.223 455.409 119.095 455.409 115.576V89.7674C455.409 89.0505 455.604 88.4965 455.994 88.1055C456.45 87.6493 457.035 87.4212 457.751 87.4212H464.584C465.3 87.4212 465.853 87.6493 466.244 88.1055C466.699 88.5617 466.927 89.1157 466.927 89.7674V116.26C466.927 120.496 466.211 124.341 464.779 127.795C463.413 131.25 461.46 134.182 458.923 136.594C456.385 139.005 453.391 140.863 449.942 142.166C446.558 143.404 442.849 143.991 438.814 143.926H430.517C425.767 143.926 421.602 142.948 418.023 140.993C414.444 138.973 411.645 136.235 409.628 132.781C407.676 129.262 406.7 125.286 406.7 120.855V89.7674C406.7 89.1157 406.928 88.5617 407.383 88.1055C407.839 87.6493 408.392 87.4212 409.042 87.4212H415.973C416.624 87.4212 417.177 87.6493 417.632 88.1055C418.088 88.4965 418.316 89.0505 418.316 89.7674L418.511 116.358C418.511 121.897 419.975 126.166 422.903 129.164C425.897 132.097 429.606 133.563 434.031 133.563H436.764ZM416.656 124.569L416.559 115.576C420.463 115.51 423.489 114.859 425.637 113.62C427.784 112.317 429.281 110.557 430.127 108.342C430.973 106.06 431.396 103.454 431.396 100.521V89.8652C431.396 89.1483 431.591 88.5617 431.981 88.1055C432.437 87.6493 433.023 87.4212 433.738 87.4212H440.571C441.222 87.4212 441.775 87.6493 442.231 88.1055C442.686 88.5617 442.914 89.1483 442.914 89.8652V100.814C442.914 105.637 441.938 109.84 439.986 113.425C438.033 116.944 435.105 119.682 431.201 121.637C427.296 123.592 422.448 124.569 416.656 124.569ZM504.054 143.241C503.403 143.241 502.882 143.013 502.492 142.557C502.101 142.101 501.841 141.547 501.711 140.895L495.854 111.177C495.269 108.179 494.585 105.702 493.804 103.747C493.023 101.792 491.95 100.325 490.583 99.3477C489.282 98.305 487.492 97.7836 485.214 97.7836H481.798C481.082 97.7836 480.496 97.5555 480.041 97.0993C479.65 96.6431 479.455 96.0891 479.455 95.4374V89.3764C479.455 88.7246 479.65 88.1707 480.041 87.7145C480.496 87.2583 481.082 87.0302 481.798 87.0302H485.41C490.29 87.0302 494.227 87.8774 497.221 89.5719C500.279 91.2664 502.655 93.8733 504.346 97.3926C506.104 100.847 507.535 105.278 508.641 110.688L514.498 140.895C514.628 141.547 514.433 142.101 513.913 142.557C513.457 143.013 512.871 143.241 512.156 143.241H504.054ZM492.926 138.353C490.388 139.918 488.045 141.156 485.898 142.068C483.815 142.915 481.635 143.567 479.358 144.023C478.707 144.089 478.154 144.023 477.698 143.828C477.243 143.632 477.015 143.209 477.015 142.557V135.03C477.015 133.922 477.698 133.107 479.065 132.586C479.52 132.39 480.366 132.097 481.603 131.706C482.904 131.315 484.271 130.859 485.702 130.337C487.134 129.751 488.371 129.164 489.412 128.578C490.974 127.73 492.47 126.59 493.902 125.156C495.399 123.657 496.668 122.093 497.709 120.464C498.75 118.834 499.368 117.303 499.563 115.869L505.225 115.576C505.03 118.965 504.379 122.125 503.273 125.058C502.232 127.991 500.8 130.598 498.978 132.879C497.156 135.095 495.138 136.92 492.926 138.353ZM551.383 98.0769L525.223 98.1746C524.572 98.1746 524.019 97.9465 523.563 97.4903C523.108 97.0341 522.88 96.4802 522.88 95.8284V89.7674C522.88 89.1157 523.108 88.5617 523.563 88.1055C524.019 87.6493 524.572 87.4212 525.223 87.4212H553.042C557.207 87.4212 560.949 88.3336 564.268 90.1584C567.587 91.9181 570.157 94.5576 571.979 98.0769C573.866 101.596 574.81 105.995 574.81 111.274V140.895C574.81 141.547 574.582 142.101 574.127 142.557C573.736 143.013 573.183 143.241 572.467 143.241H546.697C545.982 143.241 545.396 143.013 544.94 142.557C544.55 142.101 544.355 141.547 544.355 140.895V135.225C544.355 134.573 544.55 134.019 544.94 133.563C545.396 133.107 545.982 132.879 546.697 132.879H562.511V111.959C562.511 109.091 562.023 106.614 561.047 104.529C560.07 102.443 558.736 100.847 557.044 99.7388C555.352 98.6308 553.465 98.0769 551.383 98.0769ZM524.344 143.241C523.758 143.241 523.238 143.013 522.782 142.557C522.327 142.101 522.164 141.514 522.294 140.797L531.567 95.1441C531.698 94.4272 531.99 93.8733 532.446 93.4822C532.901 93.0912 533.455 92.9283 534.105 92.9934L540.645 93.1889C541.361 93.2541 541.914 93.5474 542.305 94.0688C542.76 94.5902 542.923 95.1767 542.793 95.8284L534.398 140.797C534.398 141.514 534.138 142.101 533.617 142.557C533.097 143.013 532.511 143.241 531.86 143.241H524.344Z"/>
</mask>
<path d="M234.992 143.241C234.342 143.241 233.788 143.013 233.333 142.557C232.877 142.101 232.65 141.547 232.65 140.895V89.7674C232.65 89.1157 232.877 88.5617 233.333 88.1055C233.788 87.6493 234.342 87.4212 234.992 87.4212H255.198C260.925 87.4212 265.643 88.2684 269.352 89.9629C273.126 91.6574 275.957 94.2643 277.844 97.7836C279.732 101.238 280.675 105.735 280.675 111.274V140.895C280.675 141.547 280.447 142.101 279.992 142.557C279.601 143.013 279.048 143.241 278.332 143.241H234.992ZM243.973 132.879H268.766V111.763C268.766 107.331 267.628 103.91 265.35 101.498C263.137 99.0219 259.591 97.7836 254.71 97.7836H243.973V132.879ZM295.319 120.366C294.668 120.366 294.115 120.138 293.66 119.682C293.204 119.225 292.977 118.671 292.977 118.02V89.7674C292.977 89.1157 293.204 88.5617 293.66 88.1055C294.115 87.6493 294.668 87.4212 295.319 87.4212H303.421C304.137 87.4212 304.69 87.6493 305.08 88.1055C305.536 88.5617 305.764 89.1157 305.764 89.7674V118.02C305.764 118.671 305.536 119.225 305.08 119.682C304.69 120.138 304.137 120.366 303.421 120.366H295.319ZM345.767 98.0769L319.607 98.1746C318.956 98.1746 318.403 97.9465 317.947 97.4903C317.492 97.0341 317.264 96.4802 317.264 95.8284V89.7674C317.264 89.1157 317.492 88.5617 317.947 88.1055C318.403 87.6493 318.956 87.4212 319.607 87.4212H347.426C351.591 87.4212 355.333 88.3336 358.652 90.1584C361.971 91.9181 364.541 94.5576 366.363 98.0769C368.25 101.596 369.194 105.995 369.194 111.274V140.895C369.194 141.547 368.966 142.101 368.511 142.557C368.12 143.013 367.567 143.241 366.851 143.241H341.082C340.366 143.241 339.78 143.013 339.325 142.557C338.934 142.101 338.739 141.547 338.739 140.895V135.225C338.739 134.573 338.934 134.019 339.325 133.563C339.78 133.107 340.366 132.879 341.082 132.879H356.895V111.959C356.895 109.091 356.407 106.614 355.431 104.529C354.454 102.443 353.12 100.847 351.428 99.7388C349.737 98.6308 347.849 98.0769 345.767 98.0769ZM318.728 143.241C318.143 143.241 317.622 143.013 317.166 142.557C316.711 142.101 316.548 141.514 316.678 140.797L325.952 95.1441C326.082 94.4272 326.375 93.8733 326.83 93.4822C327.286 93.0912 327.839 92.9283 328.489 92.9934L335.03 93.1889C335.745 93.2541 336.299 93.5474 336.689 94.0688C337.145 94.5902 337.307 95.1767 337.177 95.8284L328.782 140.797C328.782 141.514 328.522 142.101 328.001 142.557C327.481 143.013 326.895 143.241 326.244 143.241H318.728ZM383.876 120.366C383.226 120.366 382.673 120.138 382.217 119.682C381.761 119.225 381.534 118.671 381.534 118.02V89.7674C381.534 89.1157 381.761 88.5617 382.217 88.1055C382.673 87.6493 383.226 87.4212 383.876 87.4212H391.978C392.694 87.4212 393.247 87.6493 393.638 88.1055C394.093 88.5617 394.321 89.1157 394.321 89.7674V118.02C394.321 118.671 394.093 119.225 393.638 119.682C393.247 120.138 392.694 120.366 391.978 120.366H383.876ZM436.764 133.563C440.604 133.628 443.89 132.912 446.623 131.413C449.422 129.848 451.569 127.698 453.066 124.96C454.628 122.223 455.409 119.095 455.409 115.576V89.7674C455.409 89.0505 455.604 88.4965 455.994 88.1055C456.45 87.6493 457.035 87.4212 457.751 87.4212H464.584C465.3 87.4212 465.853 87.6493 466.244 88.1055C466.699 88.5617 466.927 89.1157 466.927 89.7674V116.26C466.927 120.496 466.211 124.341 464.779 127.795C463.413 131.25 461.46 134.182 458.923 136.594C456.385 139.005 453.391 140.863 449.942 142.166C446.558 143.404 442.849 143.991 438.814 143.926H430.517C425.767 143.926 421.602 142.948 418.023 140.993C414.444 138.973 411.645 136.235 409.628 132.781C407.676 129.262 406.7 125.286 406.7 120.855V89.7674C406.7 89.1157 406.928 88.5617 407.383 88.1055C407.839 87.6493 408.392 87.4212 409.042 87.4212H415.973C416.624 87.4212 417.177 87.6493 417.632 88.1055C418.088 88.4965 418.316 89.0505 418.316 89.7674L418.511 116.358C418.511 121.897 419.975 126.166 422.903 129.164C425.897 132.097 429.606 133.563 434.031 133.563H436.764ZM416.656 124.569L416.559 115.576C420.463 115.51 423.489 114.859 425.637 113.62C427.784 112.317 429.281 110.557 430.127 108.342C430.973 106.06 431.396 103.454 431.396 100.521V89.8652C431.396 89.1483 431.591 88.5617 431.981 88.1055C432.437 87.6493 433.023 87.4212 433.738 87.4212H440.571C441.222 87.4212 441.775 87.6493 442.231 88.1055C442.686 88.5617 442.914 89.1483 442.914 89.8652V100.814C442.914 105.637 441.938 109.84 439.986 113.425C438.033 116.944 435.105 119.682 431.201 121.637C427.296 123.592 422.448 124.569 416.656 124.569ZM504.054 143.241C503.403 143.241 502.882 143.013 502.492 142.557C502.101 142.101 501.841 141.547 501.711 140.895L495.854 111.177C495.269 108.179 494.585 105.702 493.804 103.747C493.023 101.792 491.95 100.325 490.583 99.3477C489.282 98.305 487.492 97.7836 485.214 97.7836H481.798C481.082 97.7836 480.496 97.5555 480.041 97.0993C479.65 96.6431 479.455 96.0891 479.455 95.4374V89.3764C479.455 88.7246 479.65 88.1707 480.041 87.7145C480.496 87.2583 481.082 87.0302 481.798 87.0302H485.41C490.29 87.0302 494.227 87.8774 497.221 89.5719C500.279 91.2664 502.655 93.8733 504.346 97.3926C506.104 100.847 507.535 105.278 508.641 110.688L514.498 140.895C514.628 141.547 514.433 142.101 513.913 142.557C513.457 143.013 512.871 143.241 512.156 143.241H504.054ZM492.926 138.353C490.388 139.918 488.045 141.156 485.898 142.068C483.815 142.915 481.635 143.567 479.358 144.023C478.707 144.089 478.154 144.023 477.698 143.828C477.243 143.632 477.015 143.209 477.015 142.557V135.03C477.015 133.922 477.698 133.107 479.065 132.586C479.52 132.39 480.366 132.097 481.603 131.706C482.904 131.315 484.271 130.859 485.702 130.337C487.134 129.751 488.371 129.164 489.412 128.578C490.974 127.73 492.47 126.59 493.902 125.156C495.399 123.657 496.668 122.093 497.709 120.464C498.75 118.834 499.368 117.303 499.563 115.869L505.225 115.576C505.03 118.965 504.379 122.125 503.273 125.058C502.232 127.991 500.8 130.598 498.978 132.879C497.156 135.095 495.138 136.92 492.926 138.353ZM551.383 98.0769L525.223 98.1746C524.572 98.1746 524.019 97.9465 523.563 97.4903C523.108 97.0341 522.88 96.4802 522.88 95.8284V89.7674C522.88 89.1157 523.108 88.5617 523.563 88.1055C524.019 87.6493 524.572 87.4212 525.223 87.4212H553.042C557.207 87.4212 560.949 88.3336 564.268 90.1584C567.587 91.9181 570.157 94.5576 571.979 98.0769C573.866 101.596 574.81 105.995 574.81 111.274V140.895C574.81 141.547 574.582 142.101 574.127 142.557C573.736 143.013 573.183 143.241 572.467 143.241H546.697C545.982 143.241 545.396 143.013 544.94 142.557C544.55 142.101 544.355 141.547 544.355 140.895V135.225C544.355 134.573 544.55 134.019 544.94 133.563C545.396 133.107 545.982 132.879 546.697 132.879H562.511V111.959C562.511 109.091 562.023 106.614 561.047 104.529C560.07 102.443 558.736 100.847 557.044 99.7388C555.352 98.6308 553.465 98.0769 551.383 98.0769ZM524.344 143.241C523.758 143.241 523.238 143.013 522.782 142.557C522.327 142.101 522.164 141.514 522.294 140.797L531.567 95.1441C531.698 94.4272 531.99 93.8733 532.446 93.4822C532.901 93.0912 533.455 92.9283 534.105 92.9934L540.645 93.1889C541.361 93.2541 541.914 93.5474 542.305 94.0688C542.76 94.5902 542.923 95.1767 542.793 95.8284L534.398 140.797C534.398 141.514 534.138 142.101 533.617 142.557C533.097 143.013 532.511 143.241 531.86 143.241H524.344Z" fill="#15429E"/>
<path d="M234.992 143.241C234.342 143.241 233.788 143.013 233.333 142.557C232.877 142.101 232.65 141.547 232.65 140.895V89.7674C232.65 89.1157 232.877 88.5617 233.333 88.1055C233.788 87.6493 234.342 87.4212 234.992 87.4212H255.198C260.925 87.4212 265.643 88.2684 269.352 89.9629C273.126 91.6574 275.957 94.2643 277.844 97.7836C279.732 101.238 280.675 105.735 280.675 111.274V140.895C280.675 141.547 280.447 142.101 279.992 142.557C279.601 143.013 279.048 143.241 278.332 143.241H234.992ZM243.973 132.879H268.766V111.763C268.766 107.331 267.628 103.91 265.35 101.498C263.137 99.0219 259.591 97.7836 254.71 97.7836H243.973V132.879ZM295.319 120.366C294.668 120.366 294.115 120.138 293.66 119.682C293.204 119.225 292.977 118.671 292.977 118.02V89.7674C292.977 89.1157 293.204 88.5617 293.66 88.1055C294.115 87.6493 294.668 87.4212 295.319 87.4212H303.421C304.137 87.4212 304.69 87.6493 305.08 88.1055C305.536 88.5617 305.764 89.1157 305.764 89.7674V118.02C305.764 118.671 305.536 119.225 305.08 119.682C304.69 120.138 304.137 120.366 303.421 120.366H295.319ZM345.767 98.0769L319.607 98.1746C318.956 98.1746 318.403 97.9465 317.947 97.4903C317.492 97.0341 317.264 96.4802 317.264 95.8284V89.7674C317.264 89.1157 317.492 88.5617 317.947 88.1055C318.403 87.6493 318.956 87.4212 319.607 87.4212H347.426C351.591 87.4212 355.333 88.3336 358.652 90.1584C361.971 91.9181 364.541 94.5576 366.363 98.0769C368.25 101.596 369.194 105.995 369.194 111.274V140.895C369.194 141.547 368.966 142.101 368.511 142.557C368.12 143.013 367.567 143.241 366.851 143.241H341.082C340.366 143.241 339.78 143.013 339.325 142.557C338.934 142.101 338.739 141.547 338.739 140.895V135.225C338.739 134.573 338.934 134.019 339.325 133.563C339.78 133.107 340.366 132.879 341.082 132.879H356.895V111.959C356.895 109.091 356.407 106.614 355.431 104.529C354.454 102.443 353.12 100.847 351.428 99.7388C349.737 98.6308 347.849 98.0769 345.767 98.0769ZM318.728 143.241C318.143 143.241 317.622 143.013 317.166 142.557C316.711 142.101 316.548 141.514 316.678 140.797L325.952 95.1441C326.082 94.4272 326.375 93.8733 326.83 93.4822C327.286 93.0912 327.839 92.9283 328.489 92.9934L335.03 93.1889C335.745 93.2541 336.299 93.5474 336.689 94.0688C337.145 94.5902 337.307 95.1767 337.177 95.8284L328.782 140.797C328.782 141.514 328.522 142.101 328.001 142.557C327.481 143.013 326.895 143.241 326.244 143.241H318.728ZM383.876 120.366C383.226 120.366 382.673 120.138 382.217 119.682C381.761 119.225 381.534 118.671 381.534 118.02V89.7674C381.534 89.1157 381.761 88.5617 382.217 88.1055C382.673 87.6493 383.226 87.4212 383.876 87.4212H391.978C392.694 87.4212 393.247 87.6493 393.638 88.1055C394.093 88.5617 394.321 89.1157 394.321 89.7674V118.02C394.321 118.671 394.093 119.225 393.638 119.682C393.247 120.138 392.694 120.366 391.978 120.366H383.876ZM436.764 133.563C440.604 133.628 443.89 132.912 446.623 131.413C449.422 129.848 451.569 127.698 453.066 124.96C454.628 122.223 455.409 119.095 455.409 115.576V89.7674C455.409 89.0505 455.604 88.4965 455.994 88.1055C456.45 87.6493 457.035 87.4212 457.751 87.4212H464.584C465.3 87.4212 465.853 87.6493 466.244 88.1055C466.699 88.5617 466.927 89.1157 466.927 89.7674V116.26C466.927 120.496 466.211 124.341 464.779 127.795C463.413 131.25 461.46 134.182 458.923 136.594C456.385 139.005 453.391 140.863 449.942 142.166C446.558 143.404 442.849 143.991 438.814 143.926H430.517C425.767 143.926 421.602 142.948 418.023 140.993C414.444 138.973 411.645 136.235 409.628 132.781C407.676 129.262 406.7 125.286 406.7 120.855V89.7674C406.7 89.1157 406.928 88.5617 407.383 88.1055C407.839 87.6493 408.392 87.4212 409.042 87.4212H415.973C416.624 87.4212 417.177 87.6493 417.632 88.1055C418.088 88.4965 418.316 89.0505 418.316 89.7674L418.511 116.358C418.511 121.897 419.975 126.166 422.903 129.164C425.897 132.097 429.606 133.563 434.031 133.563H436.764ZM416.656 124.569L416.559 115.576C420.463 115.51 423.489 114.859 425.637 113.62C427.784 112.317 429.281 110.557 430.127 108.342C430.973 106.06 431.396 103.454 431.396 100.521V89.8652C431.396 89.1483 431.591 88.5617 431.981 88.1055C432.437 87.6493 433.023 87.4212 433.738 87.4212H440.571C441.222 87.4212 441.775 87.6493 442.231 88.1055C442.686 88.5617 442.914 89.1483 442.914 89.8652V100.814C442.914 105.637 441.938 109.84 439.986 113.425C438.033 116.944 435.105 119.682 431.201 121.637C427.296 123.592 422.448 124.569 416.656 124.569ZM504.054 143.241C503.403 143.241 502.882 143.013 502.492 142.557C502.101 142.101 501.841 141.547 501.711 140.895L495.854 111.177C495.269 108.179 494.585 105.702 493.804 103.747C493.023 101.792 491.95 100.325 490.583 99.3477C489.282 98.305 487.492 97.7836 485.214 97.7836H481.798C481.082 97.7836 480.496 97.5555 480.041 97.0993C479.65 96.6431 479.455 96.0891 479.455 95.4374V89.3764C479.455 88.7246 479.65 88.1707 480.041 87.7145C480.496 87.2583 481.082 87.0302 481.798 87.0302H485.41C490.29 87.0302 494.227 87.8774 497.221 89.5719C500.279 91.2664 502.655 93.8733 504.346 97.3926C506.104 100.847 507.535 105.278 508.641 110.688L514.498 140.895C514.628 141.547 514.433 142.101 513.913 142.557C513.457 143.013 512.871 143.241 512.156 143.241H504.054ZM492.926 138.353C490.388 139.918 488.045 141.156 485.898 142.068C483.815 142.915 481.635 143.567 479.358 144.023C478.707 144.089 478.154 144.023 477.698 143.828C477.243 143.632 477.015 143.209 477.015 142.557V135.03C477.015 133.922 477.698 133.107 479.065 132.586C479.52 132.39 480.366 132.097 481.603 131.706C482.904 131.315 484.271 130.859 485.702 130.337C487.134 129.751 488.371 129.164 489.412 128.578C490.974 127.73 492.47 126.59 493.902 125.156C495.399 123.657 496.668 122.093 497.709 120.464C498.75 118.834 499.368 117.303 499.563 115.869L505.225 115.576C505.03 118.965 504.379 122.125 503.273 125.058C502.232 127.991 500.8 130.598 498.978 132.879C497.156 135.095 495.138 136.92 492.926 138.353ZM551.383 98.0769L525.223 98.1746C524.572 98.1746 524.019 97.9465 523.563 97.4903C523.108 97.0341 522.88 96.4802 522.88 95.8284V89.7674C522.88 89.1157 523.108 88.5617 523.563 88.1055C524.019 87.6493 524.572 87.4212 525.223 87.4212H553.042C557.207 87.4212 560.949 88.3336 564.268 90.1584C567.587 91.9181 570.157 94.5576 571.979 98.0769C573.866 101.596 574.81 105.995 574.81 111.274V140.895C574.81 141.547 574.582 142.101 574.127 142.557C573.736 143.013 573.183 143.241 572.467 143.241H546.697C545.982 143.241 545.396 143.013 544.94 142.557C544.55 142.101 544.355 141.547 544.355 140.895V135.225C544.355 134.573 544.55 134.019 544.94 133.563C545.396 133.107 545.982 132.879 546.697 132.879H562.511V111.959C562.511 109.091 562.023 106.614 561.047 104.529C560.07 102.443 558.736 100.847 557.044 99.7388C555.352 98.6308 553.465 98.0769 551.383 98.0769ZM524.344 143.241C523.758 143.241 523.238 143.013 522.782 142.557C522.327 142.101 522.164 141.514 522.294 140.797L531.567 95.1441C531.698 94.4272 531.99 93.8733 532.446 93.4822C532.901 93.0912 533.455 92.9283 534.105 92.9934L540.645 93.1889C541.361 93.2541 541.914 93.5474 542.305 94.0688C542.76 94.5902 542.923 95.1767 542.793 95.8284L534.398 140.797C534.398 141.514 534.138 142.101 533.617 142.557C533.097 143.013 532.511 143.241 531.86 143.241H524.344Z" stroke="#E7F3F3" stroke-width="6" mask="url(#path-4-outside-1_42_6)"/>
<mask id="path-5-outside-2_42_6" maskUnits="userSpaceOnUse" x="59.9509" y="172.466" width="250" height="75" fill="black">
<rect fill="white" x="59.9509" y="172.466" width="250" height="75"/>
<path d="M65.2936 243.897C64.6428 243.897 64.0897 243.668 63.6342 243.212C63.1787 242.756 62.9509 242.202 62.9509 241.55V177.909C62.9509 177.193 63.1787 176.606 63.6342 176.15C64.0897 175.694 64.6428 175.466 65.2936 175.466H72.8098C73.7208 175.466 74.3716 175.694 74.762 176.15C75.2176 176.541 75.5104 176.834 75.6406 177.03L103.753 220.826V177.909C103.753 177.193 103.948 176.606 104.339 176.15C104.794 175.694 105.38 175.466 106.096 175.466H114.295C115.011 175.466 115.597 175.694 116.052 176.15C116.508 176.606 116.736 177.193 116.736 177.909V241.453C116.736 242.169 116.508 242.756 116.052 243.212C115.597 243.668 115.044 243.897 114.393 243.897H106.779C105.868 243.897 105.217 243.668 104.827 243.212C104.436 242.756 104.143 242.463 103.948 242.332L75.9334 199.514V241.55C75.9334 242.202 75.7056 242.756 75.2501 243.212C74.7946 243.668 74.2089 243.897 73.4931 243.897H65.2936ZM134.309 243.897C133.658 243.897 133.105 243.668 132.649 243.212C132.194 242.756 131.966 242.202 131.966 241.55V177.909C131.966 177.193 132.194 176.606 132.649 176.15C133.105 175.694 133.658 175.466 134.309 175.466H177.258C177.974 175.466 178.56 175.694 179.015 176.15C179.471 176.606 179.699 177.193 179.699 177.909V184.362C179.699 185.013 179.471 185.567 179.015 186.023C178.56 186.48 177.974 186.708 177.258 186.708H145.144V204.011H175.111C175.827 204.011 176.412 204.239 176.868 204.695C177.323 205.086 177.551 205.64 177.551 206.357V212.418C177.551 213.135 177.323 213.722 176.868 214.178C176.412 214.569 175.827 214.764 175.111 214.764H145.144V232.654H178.039C178.755 232.654 179.341 232.882 179.796 233.339C180.252 233.795 180.48 234.381 180.48 235.098V241.55C180.48 242.202 180.252 242.756 179.796 243.212C179.341 243.668 178.755 243.897 178.039 243.897H134.309ZM188.882 243.897C188.296 243.897 187.808 243.701 187.417 243.31C187.027 242.919 186.832 242.43 186.832 241.844C186.832 241.648 186.864 241.453 186.929 241.257C186.994 241.062 187.059 240.866 187.124 240.671L208.99 208.997L188.491 178.692C188.296 178.301 188.198 177.909 188.198 177.518C188.198 176.932 188.393 176.443 188.784 176.052C189.174 175.661 189.63 175.466 190.15 175.466H200.205C200.985 175.466 201.604 175.661 202.059 176.052C202.515 176.443 202.905 176.867 203.231 177.323L217.58 198.439L232.026 177.323C232.287 176.867 232.645 176.443 233.1 176.052C233.621 175.661 234.271 175.466 235.052 175.466H244.521C245.106 175.466 245.595 175.661 245.985 176.052C246.375 176.443 246.571 176.932 246.571 177.518C246.571 177.909 246.44 178.301 246.18 178.692L225.779 208.997L247.644 240.671C247.775 240.866 247.872 241.062 247.937 241.257C248.002 241.453 248.035 241.648 248.035 241.844C248.035 242.43 247.807 242.919 247.352 243.31C246.961 243.701 246.506 243.897 245.985 243.897H235.638C234.857 243.897 234.239 243.701 233.783 243.31C233.328 242.919 232.97 242.528 232.71 242.137L217.092 220.043L201.766 242.137C201.506 242.528 201.148 242.919 200.693 243.31C200.237 243.701 199.586 243.897 198.74 243.897H188.882ZM274.693 243.897C274.042 243.897 273.489 243.668 273.034 243.212C272.578 242.756 272.351 242.202 272.351 241.55V187.49H254.292C253.641 187.49 253.088 187.262 252.633 186.806C252.177 186.349 251.949 185.795 251.949 185.144V177.909C251.949 177.193 252.177 176.606 252.633 176.15C253.088 175.694 253.641 175.466 254.292 175.466H304.075C304.791 175.466 305.376 175.694 305.832 176.15C306.287 176.606 306.515 177.193 306.515 177.909V185.144C306.515 185.795 306.287 186.349 305.832 186.806C305.376 187.262 304.791 187.49 304.075 187.49H286.114V241.55C286.114 242.202 285.886 242.756 285.431 243.212C284.975 243.668 284.389 243.897 283.674 243.897H274.693Z"/>
</mask>
<path d="M65.2936 243.897C64.6428 243.897 64.0897 243.668 63.6342 243.212C63.1787 242.756 62.9509 242.202 62.9509 241.55V177.909C62.9509 177.193 63.1787 176.606 63.6342 176.15C64.0897 175.694 64.6428 175.466 65.2936 175.466H72.8098C73.7208 175.466 74.3716 175.694 74.762 176.15C75.2176 176.541 75.5104 176.834 75.6406 177.03L103.753 220.826V177.909C103.753 177.193 103.948 176.606 104.339 176.15C104.794 175.694 105.38 175.466 106.096 175.466H114.295C115.011 175.466 115.597 175.694 116.052 176.15C116.508 176.606 116.736 177.193 116.736 177.909V241.453C116.736 242.169 116.508 242.756 116.052 243.212C115.597 243.668 115.044 243.897 114.393 243.897H106.779C105.868 243.897 105.217 243.668 104.827 243.212C104.436 242.756 104.143 242.463 103.948 242.332L75.9334 199.514V241.55C75.9334 242.202 75.7056 242.756 75.2501 243.212C74.7946 243.668 74.2089 243.897 73.4931 243.897H65.2936ZM134.309 243.897C133.658 243.897 133.105 243.668 132.649 243.212C132.194 242.756 131.966 242.202 131.966 241.55V177.909C131.966 177.193 132.194 176.606 132.649 176.15C133.105 175.694 133.658 175.466 134.309 175.466H177.258C177.974 175.466 178.56 175.694 179.015 176.15C179.471 176.606 179.699 177.193 179.699 177.909V184.362C179.699 185.013 179.471 185.567 179.015 186.023C178.56 186.48 177.974 186.708 177.258 186.708H145.144V204.011H175.111C175.827 204.011 176.412 204.239 176.868 204.695C177.323 205.086 177.551 205.64 177.551 206.357V212.418C177.551 213.135 177.323 213.722 176.868 214.178C176.412 214.569 175.827 214.764 175.111 214.764H145.144V232.654H178.039C178.755 232.654 179.341 232.882 179.796 233.339C180.252 233.795 180.48 234.381 180.48 235.098V241.55C180.48 242.202 180.252 242.756 179.796 243.212C179.341 243.668 178.755 243.897 178.039 243.897H134.309ZM188.882 243.897C188.296 243.897 187.808 243.701 187.417 243.31C187.027 242.919 186.832 242.43 186.832 241.844C186.832 241.648 186.864 241.453 186.929 241.257C186.994 241.062 187.059 240.866 187.124 240.671L208.99 208.997L188.491 178.692C188.296 178.301 188.198 177.909 188.198 177.518C188.198 176.932 188.393 176.443 188.784 176.052C189.174 175.661 189.63 175.466 190.15 175.466H200.205C200.985 175.466 201.604 175.661 202.059 176.052C202.515 176.443 202.905 176.867 203.231 177.323L217.58 198.439L232.026 177.323C232.287 176.867 232.645 176.443 233.1 176.052C233.621 175.661 234.271 175.466 235.052 175.466H244.521C245.106 175.466 245.595 175.661 245.985 176.052C246.375 176.443 246.571 176.932 246.571 177.518C246.571 177.909 246.44 178.301 246.18 178.692L225.779 208.997L247.644 240.671C247.775 240.866 247.872 241.062 247.937 241.257C248.002 241.453 248.035 241.648 248.035 241.844C248.035 242.43 247.807 242.919 247.352 243.31C246.961 243.701 246.506 243.897 245.985 243.897H235.638C234.857 243.897 234.239 243.701 233.783 243.31C233.328 242.919 232.97 242.528 232.71 242.137L217.092 220.043L201.766 242.137C201.506 242.528 201.148 242.919 200.693 243.31C200.237 243.701 199.586 243.897 198.74 243.897H188.882ZM274.693 243.897C274.042 243.897 273.489 243.668 273.034 243.212C272.578 242.756 272.351 242.202 272.351 241.55V187.49H254.292C253.641 187.49 253.088 187.262 252.633 186.806C252.177 186.349 251.949 185.795 251.949 185.144V177.909C251.949 177.193 252.177 176.606 252.633 176.15C253.088 175.694 253.641 175.466 254.292 175.466H304.075C304.791 175.466 305.376 175.694 305.832 176.15C306.287 176.606 306.515 177.193 306.515 177.909V185.144C306.515 185.795 306.287 186.349 305.832 186.806C305.376 187.262 304.791 187.49 304.075 187.49H286.114V241.55C286.114 242.202 285.886 242.756 285.431 243.212C284.975 243.668 284.389 243.897 283.674 243.897H274.693Z" fill="#15429E"/>
<path d="M65.2936 243.897C64.6428 243.897 64.0897 243.668 63.6342 243.212C63.1787 242.756 62.9509 242.202 62.9509 241.55V177.909C62.9509 177.193 63.1787 176.606 63.6342 176.15C64.0897 175.694 64.6428 175.466 65.2936 175.466H72.8098C73.7208 175.466 74.3716 175.694 74.762 176.15C75.2176 176.541 75.5104 176.834 75.6406 177.03L103.753 220.826V177.909C103.753 177.193 103.948 176.606 104.339 176.15C104.794 175.694 105.38 175.466 106.096 175.466H114.295C115.011 175.466 115.597 175.694 116.052 176.15C116.508 176.606 116.736 177.193 116.736 177.909V241.453C116.736 242.169 116.508 242.756 116.052 243.212C115.597 243.668 115.044 243.897 114.393 243.897H106.779C105.868 243.897 105.217 243.668 104.827 243.212C104.436 242.756 104.143 242.463 103.948 242.332L75.9334 199.514V241.55C75.9334 242.202 75.7056 242.756 75.2501 243.212C74.7946 243.668 74.2089 243.897 73.4931 243.897H65.2936ZM134.309 243.897C133.658 243.897 133.105 243.668 132.649 243.212C132.194 242.756 131.966 242.202 131.966 241.55V177.909C131.966 177.193 132.194 176.606 132.649 176.15C133.105 175.694 133.658 175.466 134.309 175.466H177.258C177.974 175.466 178.56 175.694 179.015 176.15C179.471 176.606 179.699 177.193 179.699 177.909V184.362C179.699 185.013 179.471 185.567 179.015 186.023C178.56 186.48 177.974 186.708 177.258 186.708H145.144V204.011H175.111C175.827 204.011 176.412 204.239 176.868 204.695C177.323 205.086 177.551 205.64 177.551 206.357V212.418C177.551 213.135 177.323 213.722 176.868 214.178C176.412 214.569 175.827 214.764 175.111 214.764H145.144V232.654H178.039C178.755 232.654 179.341 232.882 179.796 233.339C180.252 233.795 180.48 234.381 180.48 235.098V241.55C180.48 242.202 180.252 242.756 179.796 243.212C179.341 243.668 178.755 243.897 178.039 243.897H134.309ZM188.882 243.897C188.296 243.897 187.808 243.701 187.417 243.31C187.027 242.919 186.832 242.43 186.832 241.844C186.832 241.648 186.864 241.453 186.929 241.257C186.994 241.062 187.059 240.866 187.124 240.671L208.99 208.997L188.491 178.692C188.296 178.301 188.198 177.909 188.198 177.518C188.198 176.932 188.393 176.443 188.784 176.052C189.174 175.661 189.63 175.466 190.15 175.466H200.205C200.985 175.466 201.604 175.661 202.059 176.052C202.515 176.443 202.905 176.867 203.231 177.323L217.58 198.439L232.026 177.323C232.287 176.867 232.645 176.443 233.1 176.052C233.621 175.661 234.271 175.466 235.052 175.466H244.521C245.106 175.466 245.595 175.661 245.985 176.052C246.375 176.443 246.571 176.932 246.571 177.518C246.571 177.909 246.44 178.301 246.18 178.692L225.779 208.997L247.644 240.671C247.775 240.866 247.872 241.062 247.937 241.257C248.002 241.453 248.035 241.648 248.035 241.844C248.035 242.43 247.807 242.919 247.352 243.31C246.961 243.701 246.506 243.897 245.985 243.897H235.638C234.857 243.897 234.239 243.701 233.783 243.31C233.328 242.919 232.97 242.528 232.71 242.137L217.092 220.043L201.766 242.137C201.506 242.528 201.148 242.919 200.693 243.31C200.237 243.701 199.586 243.897 198.74 243.897H188.882ZM274.693 243.897C274.042 243.897 273.489 243.668 273.034 243.212C272.578 242.756 272.351 242.202 272.351 241.55V187.49H254.292C253.641 187.49 253.088 187.262 252.633 186.806C252.177 186.349 251.949 185.795 251.949 185.144V177.909C251.949 177.193 252.177 176.606 252.633 176.15C253.088 175.694 253.641 175.466 254.292 175.466H304.075C304.791 175.466 305.376 175.694 305.832 176.15C306.287 176.606 306.515 177.193 306.515 177.909V185.144C306.515 185.795 306.287 186.349 305.832 186.806C305.376 187.262 304.791 187.49 304.075 187.49H286.114V241.55C286.114 242.202 285.886 242.756 285.431 243.212C284.975 243.668 284.389 243.897 283.674 243.897H274.693Z" stroke="#E7F3F3" stroke-width="6" mask="url(#path-5-outside-2_42_6)"/>
<defs>
<filter id="filter0_d_42_6" x="0.697128" y="168.453" width="532.068" height="184.148" filterUnits="userSpaceOnUse" color-interpolation-filters="sRGB">
<feFlood flood-opacity="0" result="BackgroundImageFix"/>
<feColorMatrix in="SourceAlpha" type="matrix" values="0 0 0 0 0 0 0 0 0 0 0 0 0 0 0 0 0 0 127 0" result="hardAlpha"/>
<feOffset dx="5" dy="9"/>
<feGaussianBlur stdDeviation="2.35"/>
<feComposite in2="hardAlpha" operator="out"/>
<feColorMatrix type="matrix" values="0 0 0 0 0 0 0 0 0 0 0 0 0 0 0 0 0 0 0.25 0"/>
<feBlend mode="normal" in2="BackgroundImageFix" result="effect1_dropShadow_42_6"/>
<feBlend mode="normal" in="SourceGraphic" in2="effect1_dropShadow_42_6" result="shape"/>
</filter>
</defs>
</svg>
