<svg width="577" height="260" viewBox="0 0 577 260" fill="none" xmlns="http://www.w3.org/2000/svg">
<path d="M511.925 116.552C511.025 121.168 509.904 125.667 508.53 130.175C508.339 130.808 508.148 131.441 507.951 132.093C507.322 134.17 506.687 136.245 506.05 138.319C505.719 139.399 505.719 139.399 505.382 140.5C493.385 179.556 480.132 218.825 458.825 254.31C458.526 254.817 458.227 255.323 457.92 255.845C457.185 257.038 456.363 258.18 455.526 259.31C454.811 259.31 454.095 259.31 453.357 259.31C452.763 255.315 452.172 251.319 451.583 247.322C451.383 245.969 451.183 244.615 450.981 243.262C449.694 234.601 448.524 225.942 447.573 217.241C447.197 217.449 446.821 217.656 446.434 217.87C410.824 237.347 370.114 247.936 329.714 253.793C328.925 253.908 328.925 253.908 328.12 254.025C320.07 255.185 312.005 256.184 303.915 257.059C302.326 257.232 300.737 257.411 299.148 257.59C282.352 259.437 265.498 259.525 248.612 259.564C246.872 259.569 245.133 259.577 243.393 259.586C221.973 259.678 200.629 258.552 179.409 255.647C178.871 255.575 178.332 255.503 177.778 255.429C124.665 248.339 70.2083 232.545 26.0301 202.759C25.181 202.195 24.3318 201.632 23.4824 201.069C15.3226 195.621 7.37132 189.846 0 183.448C0.715827 183.107 0.715827 183.107 1.44612 182.759C2.68287 183.193 2.68287 183.193 4.19712 183.933C4.77244 184.207 5.34776 184.482 5.94051 184.764C6.89227 185.222 6.89227 185.222 7.86325 185.69C31.6889 196.79 57.3671 204.609 83.1516 210.345C83.6284 210.451 84.1052 210.558 84.5964 210.667C99.6428 214.01 114.764 216.631 130.097 218.443C131.542 218.614 132.985 218.79 134.429 218.966C163.892 222.404 195.468 222.533 224.871 218.621C225.903 218.489 226.935 218.358 227.967 218.228C274.038 212.301 319.385 197.816 358.637 173.793C359.129 173.492 359.621 173.191 360.128 172.881C363.282 170.936 366.395 168.937 369.482 166.897C370.116 166.478 370.116 166.478 370.763 166.052C375.695 162.781 380.532 159.39 385.299 155.905C385.743 155.587 386.187 155.27 386.644 154.942C387.714 154.148 388.727 153.286 389.728 152.414C389.975 150.257 389.975 150.257 388.268 148.852C387.601 148.292 386.935 147.732 386.248 147.155C385.886 146.85 385.524 146.545 385.151 146.231C378.441 140.614 371.398 135.435 364.291 130.288C362.139 128.728 360.014 127.14 357.914 125.517C362.26 124.948 366.57 124.631 370.951 124.424C371.658 124.389 372.365 124.354 373.093 124.318C374.629 124.242 376.164 124.167 377.7 124.093C380.172 123.974 382.645 123.852 385.117 123.729C388.657 123.553 392.198 123.378 395.738 123.204C422.383 121.888 449.021 120.527 475.636 118.75C476.182 118.714 476.729 118.677 477.291 118.64C490.478 117.782 490.478 117.782 503.644 116.683C506.411 116.478 509.152 116.508 511.925 116.552Z" fill="#0DCEDD"/>
<path d="M64.9396 116.94C66.2664 116.898 66.2664 116.898 67.62 116.856C70.8832 117.356 71.712 118.235 73.7519 120.69C75.0848 122.571 76.3002 124.506 77.5027 126.466C80.2202 130.8 83.0147 135.051 85.9867 139.23C88.8146 143.228 91.5241 147.296 94.2319 151.369C94.6978 152.068 95.1637 152.768 95.6437 153.488C96.7827 155.199 97.9211 156.91 99.0589 158.621C99.0664 158.112 99.0738 157.604 99.0815 157.081C99.1522 152.301 99.2263 147.521 99.3043 142.741C99.3442 140.283 99.3828 137.825 99.4185 135.368C99.4595 132.545 99.5062 129.722 99.5532 126.899C99.5713 125.57 99.5713 125.57 99.5898 124.213C99.6042 123.398 99.6186 122.584 99.6335 121.745C99.6447 121.023 99.656 120.302 99.6676 119.559C99.782 117.931 99.782 117.931 100.505 117.241C102.441 117.173 104.354 117.146 106.289 117.155C106.832 117.153 107.374 117.15 107.933 117.147C111.982 117.154 111.982 117.154 112.797 117.931C112.87 119.921 112.895 121.895 112.891 123.886C112.892 124.823 112.892 124.823 112.894 125.779C112.898 127.854 112.895 129.929 112.893 132.004C112.894 133.44 112.894 134.875 112.895 136.31C112.896 139.323 112.895 142.335 112.891 145.348C112.887 149.219 112.89 153.09 112.894 156.96C112.896 159.926 112.896 162.891 112.894 165.856C112.893 167.284 112.894 168.711 112.896 170.139C112.897 172.131 112.895 174.122 112.891 176.114C112.892 176.71 112.893 177.306 112.895 177.921C112.88 181.99 112.88 181.99 112.074 182.759C108.236 183.293 104.311 183.656 100.505 182.759C97.6984 180.725 96.3615 178.106 94.7206 175.172C93.8946 173.879 93.0451 172.601 92.1934 171.322C91.267 169.928 90.3581 168.525 89.4501 167.12C86.4178 162.468 83.1923 157.937 79.9875 153.393C77.6591 150.084 75.3451 146.765 73.0288 143.448C73.0214 143.931 73.0139 144.413 73.0062 144.91C72.9355 149.446 72.8614 153.983 72.7835 158.519C72.7435 160.851 72.7049 163.184 72.6692 165.516C72.6282 168.195 72.5816 170.874 72.5345 173.553C72.5164 174.815 72.5164 174.815 72.4979 176.102C72.4835 176.876 72.4691 177.649 72.4542 178.445C72.443 179.13 72.4317 179.815 72.4202 180.52C72.3058 182.069 72.3058 182.069 71.5827 182.759C69.5268 182.827 67.4924 182.854 65.4367 182.845C64.8598 182.847 64.2828 182.85 63.6884 182.853C59.3823 182.846 59.3823 182.846 58.5677 182.069C58.4911 180.103 58.4615 178.154 58.4626 176.188C58.4602 175.571 58.4578 174.955 58.4553 174.319C58.4484 172.27 58.447 170.22 58.4462 168.171C58.4439 166.753 58.4415 165.334 58.4389 163.916C58.4346 160.939 58.4333 157.962 58.4337 154.985C58.4338 151.162 58.4239 147.339 58.4114 143.516C58.4034 140.586 58.4019 137.656 58.4023 134.725C58.4015 133.315 58.3982 131.906 58.3927 130.496C58.3856 128.527 58.3877 126.559 58.392 124.591C58.388 124.003 58.3839 123.416 58.3797 122.811C58.4095 117.562 59.6036 117.03 64.9396 116.94Z" fill="#0648A9"/>
<path d="M408.121 32.9741C408.821 32.9644 409.521 32.9546 410.242 32.9445C412.143 33.1034 412.143 33.1034 414.312 34.4828C415.788 39.6951 415.119 45.7723 415.08 51.1207C415.077 51.9777 415.074 52.8347 415.07 53.7177C415.062 55.8118 415.05 57.9059 415.035 60C416.077 59.6902 417.117 59.3748 418.156 59.0571C419.025 58.7946 419.025 58.7946 419.912 58.5267C422.396 57.6194 423.612 56.5386 425.158 54.4828C426.881 49.5202 426.868 44.3751 426.95 39.2039C426.969 38.6141 426.988 38.0242 427.008 37.4165C427.018 36.8854 427.027 36.3542 427.037 35.807C427.327 34.4828 427.327 34.4828 429.496 33.1034C431.214 32.9203 431.214 32.9203 433.112 32.931C433.738 32.9275 434.364 32.9239 435.01 32.9203C436.727 33.1034 436.727 33.1034 438.896 34.4828C439.388 37.443 439.23 40.4553 439.212 43.4483C439.234 44.6844 439.234 44.6844 439.256 45.9456C439.253 51.9723 438.321 56.7201 434.761 61.7592C430.408 65.866 424.777 69.1444 418.47 69.181C417.485 69.0743 417.485 69.0743 416.481 68.9655C417.084 69.8515 417.705 70.7257 418.334 71.5948C418.678 72.0829 419.022 72.571 419.376 73.0738C422.45 76.0747 426.089 76.8126 430.33 76.9098C430.845 76.9055 431.361 76.9011 431.891 76.8965C432.699 76.8906 432.699 76.8906 433.523 76.8846C438.708 76.725 442.847 75.5473 446.59 71.9693C450.371 67.3788 450.674 62.3102 450.688 56.6891C450.706 55.3911 450.725 54.093 450.743 52.795C450.764 50.7623 450.781 48.7297 450.795 46.697C450.81 44.7258 450.839 42.755 450.869 40.7839C450.869 40.1726 450.869 39.5613 450.869 38.9314C450.894 37.4453 451.032 35.9616 451.188 34.4828C453.599 32.9499 454.511 32.8988 457.334 32.8879C458.027 32.8764 458.721 32.8648 459.435 32.8529C461.644 33.1479 462.125 33.533 463.48 35.1724C463.755 36.4652 463.755 36.4652 463.761 37.9349C463.767 38.4879 463.774 39.041 463.781 39.6108C463.777 40.2077 463.773 40.8047 463.768 41.4197C463.77 42.0401 463.772 42.6604 463.774 43.2996C463.776 44.6162 463.772 45.9328 463.763 47.2493C463.751 49.2383 463.763 51.2263 463.777 53.2152C463.789 63.5813 463.026 73.1539 455.436 81.2069C449.146 86.8891 441.391 87.7456 433.168 87.7898C432.145 87.7977 431.122 87.8117 430.099 87.8322C421.396 88.0064 414.786 87.085 408.302 81.2365C402.805 75.666 402.535 70.3097 402.602 63.0226C402.604 62.1866 402.606 61.3505 402.608 60.4891C402.616 57.826 402.634 55.1631 402.653 52.5C402.66 50.6914 402.667 48.8829 402.673 47.0743C402.688 42.6472 402.713 38.2202 402.743 33.7931C404.614 32.9008 406.033 32.9874 408.121 32.9741Z" fill="#0648A9"/>
<path d="M133.023 117.152C134.409 117.149 134.409 117.149 135.823 117.146C136.839 117.147 137.856 117.148 138.872 117.15C139.907 117.149 140.942 117.149 141.976 117.148C144.148 117.147 146.319 117.148 148.49 117.151C151.279 117.155 154.068 117.153 156.857 117.149C158.995 117.147 161.132 117.147 163.27 117.149C164.298 117.15 165.327 117.149 166.356 117.147C167.791 117.146 169.226 117.149 170.661 117.152C171.889 117.153 171.889 117.153 173.141 117.154C174.98 117.241 174.98 117.241 175.703 117.931C175.775 119.539 175.797 121.149 175.793 122.759C175.796 124.081 175.796 124.081 175.799 125.431C175.703 127.586 175.703 127.586 174.98 128.276C173.937 128.34 172.89 128.357 171.845 128.354C170.846 128.354 170.846 128.354 169.827 128.354C169.103 128.35 168.379 128.347 167.634 128.343C166.896 128.342 166.159 128.341 165.4 128.34C163.034 128.336 160.669 128.328 158.304 128.319C156.705 128.316 155.106 128.312 153.507 128.31C149.578 128.303 145.649 128.289 141.719 128.276C141.719 133.51 141.719 138.745 141.719 144.138C143.834 144.122 145.949 144.106 148.128 144.089C150.174 144.079 152.22 144.07 154.266 144.062C155.689 144.055 157.112 144.046 158.535 144.034C160.579 144.017 162.624 144.009 164.668 144.003C165.305 143.996 165.942 143.989 166.599 143.982C167.192 143.982 167.786 143.981 168.397 143.981C168.919 143.978 169.441 143.975 169.978 143.972C171.365 144.138 171.365 144.138 173.534 145.517C173.771 147.589 173.771 147.589 173.715 150.043C173.703 150.855 173.692 151.666 173.681 152.503C173.534 154.483 173.534 154.483 172.811 155.172C171.834 155.236 170.854 155.253 169.875 155.251C169.252 155.251 168.63 155.251 167.988 155.251C167.312 155.247 166.636 155.243 165.939 155.24C165.25 155.239 164.561 155.238 163.851 155.237C161.64 155.233 159.43 155.224 157.22 155.216C155.725 155.212 154.231 155.209 152.736 155.206C149.064 155.199 145.392 155.186 141.719 155.172C141.719 160.634 141.719 166.097 141.719 171.724C145.374 171.688 145.374 171.688 149.102 171.651C151.455 171.635 153.807 171.623 156.159 171.611C157.798 171.6 159.436 171.586 161.075 171.568C163.426 171.543 165.777 171.531 168.128 171.522C169.232 171.506 169.232 171.506 170.358 171.49C171.038 171.49 171.718 171.489 172.419 171.489C173.32 171.482 173.32 171.482 174.239 171.475C174.722 171.557 175.205 171.64 175.703 171.724C177.264 173.958 177.346 174.654 177.33 177.241C177.335 178.138 177.335 178.138 177.341 179.052C177.149 180.69 177.149 180.69 175.703 182.759C173.75 183.012 173.75 183.012 171.236 183.004C169.828 183.008 169.828 183.008 168.392 183.011C167.363 183.002 166.335 182.994 165.306 182.985C164.256 182.983 163.206 182.982 162.156 182.981C159.955 182.978 157.755 182.968 155.554 182.953C152.726 182.933 149.9 182.926 147.072 182.922C144.904 182.92 142.737 182.913 140.569 182.905C139.526 182.901 138.483 182.897 137.44 182.895C135.986 182.89 134.532 182.88 133.078 182.87C132.249 182.865 131.42 182.86 130.566 182.855C128.704 182.759 128.704 182.759 127.981 182.069C127.908 180.079 127.883 178.105 127.888 176.114C127.886 175.489 127.885 174.865 127.884 174.221C127.881 172.146 127.883 170.071 127.885 167.996C127.885 166.56 127.884 165.125 127.883 163.69C127.882 160.677 127.884 157.665 127.887 154.652C127.891 150.781 127.889 146.91 127.884 143.04C127.882 140.074 127.883 137.109 127.884 134.144C127.885 132.716 127.884 131.289 127.883 129.861C127.881 127.869 127.884 125.878 127.888 123.886C127.886 123.29 127.885 122.694 127.883 122.079C127.901 117.268 128.05 117.155 133.023 117.152Z" fill="#0648A9"/>
<path d="M193.06 116.653C196.047 116.758 197.672 116.928 200.123 118.65C201.495 120.413 202.68 122.192 203.785 124.117C205.117 126.338 206.649 128.425 208.158 130.539C209.901 132.986 211.601 135.458 213.302 137.931C215.854 134.979 218.148 131.884 220.442 128.75C221.544 127.246 222.648 125.745 223.771 124.256C224.511 123.248 225.218 122.218 225.892 121.168C228.386 117.49 228.386 117.49 230.679 116.798C232.337 116.673 233.879 116.722 235.536 116.853C236.368 116.882 236.368 116.882 237.217 116.911C241.163 117.08 241.163 117.08 242.947 117.931C242.591 121.155 241.802 122.976 239.719 125.523C236.478 129.599 233.409 133.758 230.403 137.994C229.811 138.824 229.214 139.652 228.613 140.477C227.731 141.689 226.863 142.909 225.998 144.133C225.23 145.203 225.23 145.203 224.446 146.295C223.271 148.177 223.271 148.177 223.5 150.074C224.192 151.837 225 153.163 226.153 154.69C226.567 155.245 226.981 155.801 227.408 156.373C227.853 156.958 228.299 157.543 228.757 158.147C229.68 159.379 230.601 160.612 231.522 161.845C232.215 162.768 232.215 162.768 232.922 163.709C234.898 166.358 236.823 169.039 238.745 171.724C241.026 174.966 241.026 174.966 243.572 178.017C244.393 179.31 244.393 179.31 244.168 181.207C244.003 181.719 243.839 182.231 243.67 182.759C238.85 183.501 233.952 184.176 229.209 182.759C225.391 180.029 223.121 175.886 220.807 171.988C219.346 169.582 217.663 167.346 215.968 165.086C215.078 163.852 214.189 162.616 213.302 161.379C209.2 166.479 205.289 171.668 201.53 177.003C201.211 177.452 200.892 177.902 200.564 178.365C200.283 178.764 200.003 179.162 199.714 179.573C197.299 182.661 197.299 182.661 195.164 182.994C194.6 182.983 194.036 182.972 193.455 182.961C192.842 182.954 192.229 182.947 191.598 182.94C190.96 182.923 190.323 182.906 189.667 182.888C189.022 182.879 188.376 182.869 187.711 182.86C186.118 182.835 184.526 182.801 182.934 182.759C182.465 181.551 182.465 181.551 182.211 180C182.865 178.659 182.865 178.659 183.916 177.252C184.302 176.726 184.688 176.2 185.086 175.658C185.509 175.1 185.932 174.541 186.368 173.966C187.239 172.786 188.11 171.606 188.981 170.426C189.422 169.834 189.864 169.243 190.318 168.634C192.209 166.091 194.057 163.52 195.903 160.948C196.391 160.272 196.391 160.272 196.889 159.582C199.261 156.294 201.597 152.986 203.902 149.655C201.052 145.27 198.084 140.985 195 136.748C194.321 135.811 193.642 134.874 192.963 133.937C191.917 132.494 190.868 131.052 189.811 129.615C188.776 128.205 187.752 126.788 186.73 125.369C186.25 124.725 186.25 124.725 185.76 124.067C183.627 121.077 183.627 121.077 183.781 119.061C185.417 115.973 189.84 116.703 193.06 116.653Z" fill="#0748A9"/>
<path d="M527.044 32.8529C528.001 32.8524 528.001 32.8524 528.977 32.8519C530.329 32.8535 531.682 32.8602 533.034 32.8716C535.083 32.8878 537.131 32.8858 539.179 32.8812C540.497 32.8851 541.815 32.89 543.132 32.896C543.736 32.8954 544.341 32.8948 544.963 32.8941C552.768 32.9817 560.297 34.1516 565.973 39.6121C572.413 47.5471 571.604 57.2448 571.473 66.7627C571.441 69.1157 571.429 71.4682 571.42 73.8214C571.411 75.3161 571.4 76.8108 571.388 78.3055C571.383 79.0095 571.377 79.7134 571.372 80.4387C571.362 81.0862 571.353 81.7337 571.344 82.4008C571.336 82.9711 571.329 83.5413 571.322 84.1288C571.216 85.5173 571.216 85.5173 570.493 86.8966C566.284 86.9136 562.075 86.9261 557.866 86.9345C556.433 86.9379 555 86.9426 553.568 86.9486C551.513 86.9569 549.458 86.9609 547.403 86.9639C546.436 86.9693 546.436 86.9693 545.449 86.9747C543.915 86.9748 542.381 86.9394 540.847 86.8966C539.54 85.65 539.999 83.79 539.989 82.1121C539.978 81.3662 539.968 80.6203 539.957 79.8519C540.124 77.9311 540.124 77.9311 541.57 76.5517C543.261 76.3952 543.261 76.3952 545.349 76.417C546.468 76.4237 546.468 76.4237 547.609 76.4305C548.39 76.4421 549.171 76.4536 549.976 76.4655C550.762 76.4718 551.549 76.478 552.36 76.4844C554.307 76.5007 556.254 76.5234 558.201 76.5517C558.15 73.4112 558.087 70.2713 558.011 67.1313C557.987 66.0652 557.967 64.9991 557.95 63.9329C558.156 54.4936 558.156 54.4936 553.501 46.5949C550.413 44.7545 547.505 44.632 543.965 44.4397C543.204 44.395 543.204 44.395 542.427 44.3494C541.178 44.2765 539.928 44.2069 538.678 44.138C538.579 44.8117 538.579 44.8117 538.478 45.4991C537.323 52.9972 535.847 60.4377 534.382 67.8853C533.928 70.1952 533.479 72.506 533.03 74.8168C532.743 76.2824 532.456 77.7479 532.168 79.2134C532.034 79.9058 531.899 80.5982 531.761 81.3116C531.636 81.9454 531.51 82.5791 531.381 83.2321C531.271 83.7916 531.162 84.3511 531.049 84.9276C530.724 86.2069 530.724 86.2069 530.001 86.8966C528.052 86.9471 526.121 86.9603 524.172 86.9397C523.623 86.9366 523.075 86.9335 522.509 86.9302C521.15 86.9221 519.791 86.9097 518.432 86.8966C517.606 84.5323 517.819 82.8726 518.346 80.4499C518.503 79.7134 518.66 78.9769 518.821 78.2181C518.997 77.4264 519.172 76.6347 519.353 75.819C519.617 74.5947 519.617 74.5947 519.886 73.3458C520.45 70.7351 521.023 68.1262 521.596 65.5173C521.977 63.7591 522.357 62.0009 522.737 60.2425C523.434 57.0225 524.133 53.8029 524.839 50.5846C525.052 49.6139 525.052 49.6139 525.269 48.6236C525.612 47.1197 525.984 45.6283 526.386 44.138C525.933 44.154 525.48 44.17 525.013 44.1864C524.127 44.2051 524.127 44.2051 523.223 44.2242C522.342 44.2482 522.342 44.2482 521.443 44.2727C519.878 44.138 519.878 44.138 518.432 42.7586C518.215 41.0372 518.215 41.0372 518.206 39.0086C518.188 38.0072 518.188 38.0072 518.17 36.9855C518.853 32.2661 522.935 32.8105 527.044 32.8529Z" fill="#0648A9"/>
<path d="M321.696 32.9203C322.333 32.919 322.971 32.9176 323.628 32.9163C324.981 32.9153 326.333 32.9179 327.685 32.9236C329.734 32.931 331.782 32.9237 333.831 32.9149C335.149 32.9158 336.466 32.9176 337.784 32.9203C338.388 32.9175 338.992 32.9147 339.615 32.9118C346.971 32.9664 353.534 34.1083 359.36 38.6207C365.786 45.6996 365.976 53.8586 365.989 62.7991C365.992 63.7414 365.992 63.7414 365.996 64.7029C366 66.0166 366.001 67.3304 366.001 68.6441C366.003 70.6582 366.016 72.6721 366.03 74.6862C366.032 75.9681 366.033 77.2499 366.034 78.5318C366.039 79.1331 366.044 79.7344 366.05 80.3538C366.047 80.9113 366.045 81.4688 366.043 82.0432C366.044 82.5324 366.045 83.0216 366.046 83.5256C365.867 84.8276 365.867 84.8276 364.421 86.8966C363.122 87.1454 363.122 87.1454 361.536 87.1315C360.645 87.1312 360.645 87.1312 359.737 87.131C358.776 87.115 358.776 87.115 357.795 87.0986C357.139 87.0957 356.483 87.0928 355.807 87.0897C353.707 87.0781 351.608 87.0522 349.508 87.0259C348.086 87.0155 346.665 87.0061 345.243 86.9976C341.754 86.9748 338.265 86.939 334.776 86.8966C334.756 85.3018 334.742 83.7069 334.73 82.1121C334.722 81.224 334.714 80.3358 334.705 79.4208C334.776 77.2414 334.776 77.2414 335.499 76.5517C336.786 76.4916 338.076 76.478 339.365 76.4844C340.146 76.4866 340.927 76.4888 341.731 76.4911C342.963 76.4998 342.963 76.4998 344.221 76.5086C345.457 76.5133 345.457 76.5133 346.719 76.5181C348.763 76.5262 350.808 76.5376 352.852 76.5517C352.802 73.6203 352.738 70.6894 352.662 67.7585C352.639 66.764 352.618 65.7695 352.602 64.7749C352.577 55.2061 352.577 55.2061 348.152 46.8966C345.105 44.5712 342.344 44.7414 338.617 44.7845C338.109 44.7876 337.602 44.7907 337.079 44.7939C335.829 44.802 334.579 44.8144 333.33 44.8276C333.233 45.3343 333.137 45.841 333.037 46.3631C332.128 51.1337 331.214 55.9033 330.293 60.672C329.82 63.1237 329.349 65.5758 328.883 68.0287C328.433 70.3951 327.978 72.7605 327.519 75.1252C327.26 76.4685 327.006 77.8129 326.752 79.1572C326.593 79.9717 326.434 80.7863 326.27 81.6255C326.132 82.3453 325.994 83.0651 325.852 83.8067C325.376 85.5173 325.376 85.5173 323.93 86.8966C322.077 87.0149 320.312 87.057 318.462 87.0259C317.957 87.0254 317.452 87.025 316.932 87.0245C313.185 86.9933 313.185 86.9933 312.361 86.2069C312.479 81.1751 313.643 76.2022 314.711 71.2931C314.869 70.5561 315.026 69.819 315.189 69.0597C315.52 67.5154 315.853 65.9715 316.188 64.4279C316.702 62.0575 317.209 59.6859 317.716 57.3141C318.04 55.8099 318.363 54.3058 318.688 52.8017C318.84 52.0913 318.992 51.3809 319.149 50.6489C319.291 49.9947 319.433 49.3405 319.58 48.6665C319.705 48.09 319.83 47.5136 319.958 46.9196C320.315 45.5173 320.315 45.5173 321.038 44.138C320.524 44.146 320.01 44.154 319.481 44.1622C318.817 44.1684 318.152 44.1746 317.467 44.1811C316.805 44.1891 316.142 44.1971 315.459 44.2053C313.807 44.138 313.807 44.138 313.084 43.4483C312.974 41.971 312.924 40.4895 312.903 39.0086C312.885 38.1988 312.866 37.3889 312.847 36.5544C312.925 35.8708 313.003 35.1871 313.084 34.4828C315.936 32.6695 318.387 32.9052 321.696 32.9203Z" fill="#0748A9"/>
<path d="M235.44 32.9202C235.912 32.9189 236.384 32.9176 236.871 32.9162C237.874 32.9153 238.877 32.9178 239.879 32.9236C241.381 32.9309 242.881 32.9237 244.382 32.9148C253.703 32.9045 263.496 33.036 271.008 38.9628C276.529 44.4384 277.362 51.6552 277.239 58.9062C277.235 60.0817 277.235 60.0817 277.232 61.2809C277.224 62.921 277.21 64.5611 277.189 66.2011C277.157 68.7238 277.145 71.246 277.136 73.7688C277.126 75.3664 277.115 76.9639 277.103 78.5614C277.098 79.3185 277.093 80.0756 277.087 80.8556C277.078 81.549 277.069 82.2425 277.059 82.9569C277.052 83.5696 277.045 84.1823 277.038 84.8135C276.931 86.2069 276.931 86.2069 276.208 86.8965C274.748 86.965 273.285 86.9848 271.823 86.9858C270.415 86.989 270.415 86.989 268.979 86.9924C267.947 86.9911 266.914 86.9897 265.882 86.9881C264.831 86.9886 263.78 86.9893 262.729 86.9901C260.524 86.9911 258.318 86.9897 256.113 86.9864C253.28 86.9825 250.448 86.9848 247.615 86.9889C245.444 86.9914 243.273 86.9906 241.102 86.9888C240.057 86.9884 239.012 86.9889 237.968 86.9905C236.51 86.9923 235.052 86.9891 233.594 86.9858C232.348 86.9849 232.348 86.9849 231.076 86.9841C229.209 86.8965 229.209 86.8965 228.486 86.2069C228.406 84.5989 228.372 83.0111 228.37 81.4024C228.366 80.9 228.363 80.3976 228.359 79.88C228.348 78.2111 228.343 76.5423 228.339 74.8734C228.335 73.718 228.331 72.5626 228.327 71.4072C228.319 68.982 228.315 66.5569 228.313 64.1317C228.309 61.0184 228.291 57.9054 228.271 54.7923C228.257 52.405 228.253 50.0179 228.252 47.6306C228.25 46.4826 228.244 45.3346 228.235 44.1866C228.223 42.5831 228.224 40.98 228.229 39.3765C228.222 38.8989 228.215 38.4213 228.208 37.9292C228.221 36.6076 228.221 36.6076 228.486 34.4827C231.102 32.8196 232.329 32.9258 235.44 32.9202ZM240.055 44.1379C240.055 54.8345 240.055 65.531 240.055 76.5517C248.168 76.5517 256.281 76.5517 264.639 76.5517C264.684 73.0241 264.729 69.4965 264.775 65.862C264.794 64.7601 264.814 63.6582 264.835 62.5229C264.902 54.1588 264.902 54.1588 260.707 46.9827C254.098 41.7545 250.884 44.1379 240.055 44.1379Z" fill="#0648AA"/>
<path d="M248.732 117.241C250.9 116.983 250.9 116.983 253.718 116.985C254.231 116.982 254.744 116.98 255.272 116.977C256.971 116.971 258.67 116.981 260.369 116.991C261.546 116.991 262.724 116.991 263.902 116.99C266.372 116.99 268.843 116.997 271.313 117.01C274.484 117.025 277.654 117.026 280.825 117.021C283.258 117.019 285.69 117.023 288.123 117.03C289.292 117.033 290.462 117.033 291.631 117.032C293.264 117.032 294.896 117.041 296.528 117.052C297.459 117.055 298.389 117.058 299.347 117.062C301.515 117.241 301.515 117.241 302.961 118.621C303.179 120.644 303.179 120.644 303.187 123.06C303.199 123.856 303.211 124.652 303.224 125.471C302.961 127.586 302.961 127.586 302.121 128.74C300.249 130.029 298.917 129.891 296.626 129.857C295.817 129.851 295.009 129.844 294.176 129.837C293.332 129.82 292.488 129.802 291.618 129.785C290.766 129.775 289.913 129.766 289.035 129.756C286.928 129.732 284.822 129.698 282.716 129.655C282.717 130.3 282.719 130.945 282.72 131.61C282.735 137.678 282.746 143.747 282.753 149.816C282.757 152.936 282.762 156.056 282.77 159.176C282.778 162.186 282.782 165.195 282.784 168.205C282.785 169.355 282.788 170.504 282.792 171.654C282.797 173.261 282.798 174.868 282.798 176.475C282.8 176.953 282.803 177.432 282.805 177.925C282.798 181.222 282.798 181.222 281.992 182.759C279.838 182.777 277.684 182.791 275.53 182.802C274.608 182.81 274.608 182.81 273.667 182.819C273.083 182.821 272.498 182.824 271.895 182.826C271.354 182.83 270.812 182.833 270.254 182.837C268.977 182.759 268.977 182.759 268.254 182.069C268.186 180.432 268.164 178.816 268.172 177.179C268.172 176.668 268.172 176.157 268.172 175.63C268.172 173.932 268.178 172.234 268.184 170.536C268.185 169.362 268.186 168.188 268.187 167.014C268.19 163.917 268.197 160.821 268.205 157.725C268.212 154.567 268.215 151.41 268.219 148.253C268.227 142.054 268.239 135.854 268.254 129.655C267.696 129.666 267.138 129.677 266.563 129.688C264.039 129.731 261.515 129.758 258.99 129.785C257.672 129.811 257.672 129.811 256.328 129.837C255.066 129.847 255.066 129.847 253.779 129.857C253.003 129.868 252.227 129.879 251.427 129.89C249.455 129.655 249.455 129.655 248.116 128.729C246.855 126.994 247.025 125.53 247.06 123.448C247.063 122.723 247.065 121.997 247.068 121.25C247.286 119.31 247.286 119.31 248.732 117.241Z" fill="#0748A9"/>
<path d="M481.24 32.8879C485.61 32.9561 489.187 33.3507 493.125 35.1724C493.568 35.3591 494.011 35.5458 494.467 35.7381C499.303 38.3244 501.356 43.5443 503.248 48.2758C503.775 50.0673 504.252 51.8218 504.672 53.6341C504.791 54.1349 504.911 54.6357 505.034 55.1517C506.327 60.6486 507.466 66.1752 508.561 71.7108C508.904 73.4409 509.256 75.1693 509.607 76.8979C509.828 78.0028 510.048 79.1077 510.267 80.2128C510.372 80.7271 510.478 81.2413 510.586 81.7712C511.285 85.3592 511.285 85.3592 510.479 86.8965C506.422 86.8965 502.366 86.8965 498.187 86.8965C496.908 83.8464 496.084 81.1028 495.294 77.931C494.978 78.2315 494.661 78.532 494.334 78.8416C488.663 83.9211 482.049 87.2065 474.326 88.2758C473.849 88.0482 473.371 87.8207 472.88 87.5862C472.88 84.1724 472.88 80.7586 472.88 77.2414C474.848 76.4732 474.848 76.4732 476.857 75.6896C478.424 75.0605 479.991 74.4284 481.556 73.7931C482.113 73.5708 482.669 73.3486 483.243 73.1196C486.897 71.5382 490.293 69.5497 492.402 66.2069C492.765 63.7801 492.256 61.6796 491.679 59.3103C491.523 58.5467 491.366 57.783 491.205 56.9962C490.373 53.182 489.513 50.2131 487.341 46.8965C487.341 46.4413 487.341 45.9862 487.341 45.5172C486.575 45.4336 485.809 45.3501 485.019 45.264C484.016 45.1476 483.012 45.0308 482.008 44.9138C481.251 44.8324 481.251 44.8324 480.477 44.7494C476.659 44.2942 476.659 44.2942 475.049 42.7586C474.857 40.862 474.857 40.862 474.868 38.6207C474.864 37.881 474.861 37.1413 474.857 36.3793C475.251 32.4876 477.748 32.8987 481.24 32.8879Z" fill="#0748A9"/>
<path d="M295.369 32.8879C296.197 32.8906 297.024 32.8932 297.877 32.896C300.069 33.1034 300.069 33.1034 302.238 34.4827C302.509 35.7651 302.509 35.7651 302.507 37.3397C302.514 38.2234 302.514 38.2234 302.521 39.125C302.514 39.7622 302.508 40.3995 302.501 41.056C302.501 41.709 302.502 42.362 302.502 43.0348C302.5 44.4169 302.493 45.799 302.481 47.1811C302.464 49.3017 302.466 51.4218 302.471 53.5425C302.467 54.8832 302.462 56.2239 302.456 57.5646C302.457 58.5205 302.457 58.5205 302.458 59.4956C302.451 60.0848 302.444 60.6739 302.437 61.281C302.433 61.8006 302.43 62.3202 302.427 62.8555C302.238 64.1379 302.238 64.1379 300.792 65.5172C298.952 65.6541 297.208 65.7093 295.369 65.6896C294.87 65.695 294.372 65.7003 293.858 65.7058C290.129 65.6919 290.129 65.6919 288.5 64.1379C288.312 62.8863 288.312 62.8863 288.301 61.3552C288.295 60.7821 288.288 60.209 288.281 59.6185C288.281 58.9985 288.282 58.3785 288.283 57.7397C288.279 57.1037 288.276 56.4676 288.273 55.8123C288.269 54.4656 288.269 53.1188 288.272 51.7721C288.274 49.7089 288.257 47.6464 288.239 45.5832C288.237 44.2762 288.237 42.9692 288.237 41.6622C288.231 41.0436 288.224 40.425 288.217 39.7877C288.222 39.2124 288.226 38.6371 288.231 38.0443C288.23 37.5385 288.23 37.0327 288.229 36.5116C288.986 32.7695 291.933 32.8399 295.369 32.8879Z" fill="#0648A9"/>
<path d="M383.944 32.9311C384.704 32.9275 385.465 32.924 386.248 32.9203C388.282 33.1035 388.282 33.1035 390.451 34.4828C390.712 35.8007 390.712 35.8007 390.697 37.4249C390.697 38.0324 390.697 38.6398 390.697 39.2656C390.686 39.9222 390.674 40.5789 390.663 41.2554C390.66 41.927 390.657 42.5986 390.654 43.2905C390.641 45.441 390.614 47.5911 390.587 49.7414C390.576 51.197 390.566 52.6527 390.557 54.1083C390.533 57.6816 390.497 61.2546 390.451 64.8276C388.302 65.8526 386.332 65.6081 383.944 65.6035C382.579 65.6061 382.579 65.6061 381.187 65.6089C378.882 65.5173 378.882 65.5173 377.436 64.8276C377.381 60.5314 377.343 56.2352 377.317 51.9387C377.306 50.4763 377.291 49.0139 377.272 47.5516C377.246 45.4528 377.234 43.3543 377.224 41.2554C377.213 40.5988 377.202 39.9421 377.19 39.2656C377.19 38.3545 377.19 38.3545 377.19 37.4249C377.185 36.8889 377.18 36.3529 377.175 35.8007C377.261 35.3658 377.347 34.9309 377.436 34.4828C379.94 32.8909 380.992 32.9173 383.944 32.9311Z" fill="#0648AA"/>
</svg>
